<?xml version="1.0" encoding="UTF-8" standalone="no"?>
<!-- Created with Inkscape (http://www.inkscape.org/) -->

<svg
    xmlns:dc="http://purl.org/dc/elements/1.1/"
    xmlns:cc="http://creativecommons.org/ns#"
    xmlns:rdf="http://www.w3.org/1999/02/22-rdf-syntax-ns#"
    xmlns:svg="http://www.w3.org/2000/svg"
    xmlns="http://www.w3.org/2000/svg"
    xmlns:sodipodi="http://sodipodi.sourceforge.net/DTD/sodipodi-0.dtd"
    xmlns:inkscape="http://www.inkscape.org/namespaces/inkscape"
    width="32"
    height="32"
    id="svg2"
    viewBox="0 0 32 32"
    version="1.1"
    inkscape:version="0.48.4 r9939"
    sodipodi:docname="dashed-line.svg">
    <g id="447e1a037bd16fa0fec4c05279919975">
    <g id="Amsterdam_1_">
        <path d="M17.126,20.458c0-0.125-0.101-0.225-0.225-0.225h-1.799c-0.124,0-0.225,0.1-0.225,0.225v3.147
            c0,0.124,0.101,0.225,0.225,0.225h1.799c0.124,0,0.225-0.101,0.225-0.225V20.458z M15.328,20.684h1.349v2.698h-1.349V20.684z"></path>
        <path d="M17.778,24.73h-3.598c-0.124,0-0.225,0.1-0.225,0.225c0,0.124,0.101,0.225,0.225,0.225h3.598
            c0.124,0,0.225-0.101,0.225-0.225C18.003,24.831,17.902,24.73,17.778,24.73z"></path>
        <path d="M18.925,14.613c0-0.125-0.101-0.225-0.225-0.225h-5.396c-0.125,0-0.226,0.1-0.226,0.225v1.799
            c0,0.124,0.101,0.225,0.226,0.225H18.7c0.124,0,0.225-0.101,0.225-0.225V14.613z M17.126,14.838h1.35v1.349h-1.35V14.838z
             M15.328,14.838h1.349v1.349h-1.349V14.838z M13.529,14.838h1.349v1.349h-1.349V14.838z"></path>
        <path d="M21.623,7.344V0.225C21.623,0.1,21.499,0,21.375,0h-5.396c-0.124,0-0.202,0.1-0.202,0.225v5.841
            C8.808,6.19,3.028,11.956,3.028,19.03C3.028,26.182,8.841,32,15.992,32c7.152,0,12.979-5.818,12.979-12.97
            C28.972,13.888,25.895,9.441,21.623,7.344z M21.604,16.637l-0.364-0.899h6.828c0.08,0.295,0.15,0.596,0.21,0.899H21.604z
             M27.468,17.086v3.597h-1.349v-3.597H27.468z M25.67,17.086v3.597h-1.35v-3.597H25.67z M23.871,17.086v3.597h-1.35v-3.597H23.871z
             M20.756,29.227l0.3,0.899h-3.93v-0.899H20.756z M17.126,28.777v-0.899h3.63l0.3,0.899H17.126z M20.827,30.576
            c-1.163,0.489-2.352,0.806-3.701,0.923v-0.923H20.827z M10.888,27.428l0.3-0.899h9.568l0.3,0.899H10.888z M14.878,30.576v0.921
            c-1.349-0.118-2.573-0.434-3.731-0.921H14.878z M10.888,30.126l0.3-0.899h3.69v0.899H10.888z M14.878,28.777h-3.99l0.3-0.899h3.69
            V28.777z M9.971,26.079l1.242-6.745h9.518l1.242,6.745H9.971z M12.181,18.885v-0.899h7.644v0.899H12.181z M21.139,19.068
            c-0.02-0.106-0.112-0.184-0.221-0.184h-0.645v-0.899h1.543c0.002-0.001,0.004-0.001,0.005,0c0.124,0,0.225-0.101,0.225-0.225
            c0-0.045-0.013-0.088-0.036-0.123l-0.224-0.551h0.286v3.597h-0.636L21.139,19.068z M27.918,17.086h0.438
            c0.1,0.633,0.152,1.282,0.152,1.943c0,0.561-0.039,1.112-0.111,1.654h-0.479V17.086z M17.576,0.45h3.597v1.349h-3.597V0.45z
             M17.576,2.248h3.597v1.349h-3.597V2.248z M17.576,4.047h3.597v1.349h-3.597V4.047z M17.576,5.845h3.597v1.349h-3.597V5.845z
             M17.576,7.644h3.597v1.349h-3.597V7.644z M17.576,9.442h3.597v1.349h-3.597V9.442z M17.576,11.241h3.799
            c0.124,0,0.248-0.101,0.248-0.225V7.841c2.922,1.512,5.291,4.195,6.312,7.446h-6.878l-0.83-2.046
            c-0.023-0.059-0.059-0.104-0.118-0.126l-2.532-0.95V11.241z M16.227,0.45h0.899v11.548l-0.899-0.336V0.45z M19.847,13.502
            l1.637,4.034H10.46l1.636-4.034l3.876-1.447L19.847,13.502z M4.362,14.389h6.889l-0.364,0.899H4.038
            C4.134,14.982,4.244,14.683,4.362,14.389z M7.684,10.342v3.597H6.335v-2.847c0.225-0.26,0.416-0.509,0.649-0.75H7.684z
             M4.552,13.939c0.359-0.803,0.884-1.561,1.334-2.263v2.263H4.552L4.552,13.939z M8.134,13.939v-3.597h1.349v3.597H8.134z
             M9.932,13.939v-3.597h1.35v3.597H9.932z M15.777,11.656l-3.92,1.459c-0.06,0.022-0.101,0.067-0.124,0.126l-0.003,0.021v-3.146
            c0-0.125-0.123-0.225-0.247-0.225H7.44c2.187-2.046,5.189-3.318,8.337-3.376V11.656z M5.87,24.03c0-0.198,0.055-0.393,0.156-0.564
            c0.276,0.218,0.617,0.339,0.968,0.339c0.352,0,0.692-0.122,0.969-0.339c0.102,0.171,0.155,0.366,0.155,0.564
            c0,0.619-0.504,1.124-1.124,1.124S5.87,24.649,5.87,24.03z M7.234,25.587c0.674-0.106,1.346-0.763,1.346-1.557
            c0-0.386-0.151-0.746-0.414-1.037c-0.043-0.047-0.106-0.062-0.17-0.062H7.995c-0.064,0-0.126,0.014-0.168,0.062
            c-0.218,0.242-0.514,0.369-0.832,0.369s-0.614-0.136-0.832-0.378c-0.086-0.095-0.249-0.097-0.334-0.001
            c-0.264,0.292-0.397,0.664-0.397,1.049c0,0.788,0.679,1.44,1.353,1.554v1.899c-2.023-2.229-3.307-5.198-3.307-8.455
            c0-1.14,0.145-2.243,0.431-3.292h6.796l-0.786,1.938c-0.028,0.069-0.021,0.148,0.021,0.21c0.042,0.062,0.112,0.1,0.187,0.1h1.604
            v0.899h-0.705c-0.108,0-0.201,0.078-0.222,0.184l-1.325,7.194c-0.012,0.066,0.006,0.133,0.049,0.185
            c0.043,0.052,0.106,0.082,0.173,0.082h1.014l-0.352,1.053c-0.022,0.069-0.012,0.144,0.031,0.202
            c0.042,0.059,0.11,0.094,0.183,0.094h0.138l-0.352,1.053c-0.022,0.068-0.012,0.144,0.031,0.202c0.042,0.059,0.11,0.094,0.183,0.094
            h0.138l-0.32,0.993c-1.173-0.59-2.26-1.357-3.159-2.271V25.587z M15.328,31.531v-3.653h1.349v3.654
            c-0.225,0.013-0.443,0.019-0.667,0.019C15.781,31.55,15.553,31.543,15.328,31.531z M24.98,25.154c-0.62,0-1.124-0.505-1.124-1.124
            c0-0.198,0.054-0.393,0.155-0.564c0.276,0.218,0.617,0.339,0.969,0.339c0.351,0,0.691-0.122,0.968-0.339
            c0.102,0.171,0.156,0.366,0.156,0.564C26.104,24.649,25.6,25.154,24.98,25.154z M25.22,25.587c0.675-0.106,1.346-0.763,1.346-1.557
            c0-0.386-0.15-0.746-0.414-1.037c-0.042-0.047-0.106-0.062-0.17-0.062H25.98c-0.064,0-0.126,0.014-0.168,0.062
            c-0.218,0.242-0.514,0.369-0.832,0.369s-0.614-0.136-0.832-0.378c-0.085-0.095-0.249-0.097-0.334-0.001
            c-0.264,0.292-0.396,0.664-0.396,1.049c0,0.788,0.678,1.44,1.353,1.554v2.379c-0.899,0.913-2.017,1.68-3.194,2.269l-0.347-1.006
            h0.138c0.002,0,0.003-0.001,0.004,0c0.125,0,0.226-0.101,0.226-0.225c0-0.041-0.011-0.079-0.029-0.112l-0.338-1.012h0.138
            c0.002,0,0.003,0,0.004,0c0.125,0,0.226-0.101,0.226-0.225c0-0.041-0.011-0.079-0.029-0.111l-0.338-1.013h1.014
            c0.066,0,0.13-0.03,0.173-0.082c0.042-0.051,0.06-0.119,0.048-0.185l-0.944-5.129h6.809c-0.414,2.431-1.534,4.626-3.108,6.368
            V25.587z"></path>
    </g>
    </g>
</svg>
