<?xml version="1.0" encoding="UTF-8" standalone="no"?>
<!-- Created with Inkscape (http://www.inkscape.org/) -->

<svg
    xmlns:dc="http://purl.org/dc/elements/1.1/"
    xmlns:cc="http://creativecommons.org/ns#"
    xmlns:rdf="http://www.w3.org/1999/02/22-rdf-syntax-ns#"
    xmlns:svg="http://www.w3.org/2000/svg"
    xmlns="http://www.w3.org/2000/svg"
    xmlns:sodipodi="http://sodipodi.sourceforge.net/DTD/sodipodi-0.dtd"
    xmlns:inkscape="http://www.inkscape.org/namespaces/inkscape"
    width="124"
    height="4"
    id="svg2"
    viewBox="0 0 32 32"
    version="1.1"
    inkscape:version="0.48.4 r9939"
    sodipodi:docname="dashed-line.svg">
  
    <g id="c8bb55b6fc9f667d720aeeecf9af25a8">
    <path id="Austin_1_" d="M20.701,6.948l0-1.099h0.674c0.102,0,0.19-0.07,0.217-0.168
        c0.027-0.098-0.016-0.203-0.103-0.253L17.04,2.819c0.052-0.133,0.087-0.276,0.087-0.42c0-0.547-0.45-1.003-0.899-1.105V0.225
        C16.228,0.101,16.127,0,16.003,0c-0.125,0-0.225,0.101-0.225,0.225v1.072c-0.674,0.107-0.899,0.559-0.899,1.098
        c0,0.14,0.022,0.28,0.071,0.41l-4.478,2.622c-0.087,0.051-0.131,0.157-0.104,0.255c0.027,0.098,0.114,0.168,0.216,0.168h0.698v1.106
        C6.336,8.85,3.033,13.546,3.033,19.029C3.033,26.181,8.848,32,15.999,32c7.152,0,12.968-5.817,12.968-12.969
        C28.967,13.538,25.532,8.836,20.701,6.948z M26.049,16.3c-0.112-0.196-0.178-0.462-0.178-0.713c0-0.858,0.693-1.555,1.545-1.555
        c0.009,0,0.033,0.005,0.058,0.009c0.593,1.358,0.952,2.825,1.025,4.398h-4.202c-0.496,0-0.899-0.403-0.899-0.899
        c0-0.496,0.403-0.899,0.899-0.899h1.556c0.08,0,0.154-0.045,0.194-0.114C26.089,16.458,26.089,16.37,26.049,16.3z M9.231,23.834
        h1.578c0.496,0,0.899,0.403,0.899,0.899s-0.403,0.899-0.899,0.899H5.362c-0.67-0.899-1.182-2.261-1.502-3.521
        c0.209-0.483,0.675-0.816,1.217-0.816c0.032,0,0.064-0.003,0.096-0.007c0.015-0.001,0.028-0.003,0.048-0.003
        c0.084,0.008,0.167-0.031,0.212-0.103c0.431-0.672,1.156-1.089,1.892-1.089c1.282,0,2.248,0.922,2.248,2.145
        c0,0.66-0.239,1.143-0.341,1.143c-0.124,0-0.225,0.102-0.225,0.227C9.007,23.732,9.108,23.834,9.231,23.834z M12.855,8.543
        c0.124,0,0.225-0.101,0.225-0.225V5.849h1.349v6.066c0,0.124,0.101,0.225,0.225,0.225c0.125,0,0.225-0.101,0.225-0.225V5.849h2.248
        v2.02c0,0.124,0.101,0.225,0.225,0.225c0.125,0,0.225-0.101,0.225-0.225v-2.02h1.349v3.369c0,0.124,0.101,0.225,0.225,0.225
        c0.124,0,0.225-0.101,0.225-0.225V5.849h0.876l0.003,7.644h-8.522V5.849h0.899v2.469C12.631,8.442,12.731,8.543,12.855,8.543z
         M16.228,22.036v-0.986c0.675-0.039,1.574-0.288,2.248-0.698v1.684H16.228z M18.476,22.486v0.899h-2.248v-0.899H18.476z
         M15.985,20.613c-2.251,0-4.092-1.725-4.25-3.973h0.896v0.67c0,0.124,0.1,0.225,0.225,0.225c0.124,0,0.225-0.101,0.225-0.225v-0.67
        h1.349v1.57c0,0.124,0.101,0.225,0.225,0.225c0.125,0,0.225-0.101,0.225-0.225v-1.57h2.248v1.12c0,0.124,0.101,0.225,0.225,0.225
        c0.125,0,0.225-0.101,0.225-0.225v-1.12h2.66C20.085,18.888,18.24,20.613,15.985,20.613z M15.778,22.486v0.899H13.53v-0.899H15.778z
         M13.53,22.036v-1.683c0.674,0.409,1.349,0.658,2.248,0.697v0.985H13.53z M13.799,16.191l2.181-2.181l2.181,2.181H13.799z
         M15.412,13.943l-2.13,2.129l-2.129-2.129H15.412z M12.765,16.191h-1.933v-1.952L12.765,16.191z M13.08,20.034v3.571
        c0,0.125,0.085,0.229,0.209,0.229h2.488v3.147h-5.032l0.082-0.902c0.735-0.01,1.33-0.611,1.33-1.349
        c0-0.654-0.468-1.201-1.086-1.324l0.504-5.439C11.877,18.788,12.406,19.5,13.08,20.034z M10.687,27.623l3.851,3.839
        c-1.454-0.169-2.831-0.587-4.09-1.212L10.687,27.623z M15.235,31.524c-0.006-0.008-0.013-0.016-0.021-0.023l-4.087-4.069h4.65v4.113
        C15.553,31.541,15.413,31.536,15.235,31.524z M16.228,27.432h4.604l-4.098,4.098c-0.17,0.01-0.506,0.012-0.506,0.015V27.432z
         M17.424,31.466l3.847-3.842l0.24,2.642C20.253,30.886,18.876,31.3,17.424,31.466z M16.228,26.982v-3.147h2.458
        c0.125,0,0.24-0.104,0.24-0.229v-3.571c0.675-0.528,1.174-1.228,1.477-2.035l0.81,8.982H16.228z M19.195,16.191l1.979-1.968v1.968
        H19.195z M18.677,16.072l-2.129-2.129h4.259L18.677,16.072z M15.996,1.722c0.372,0,0.674,0.306,0.674,0.68
        c0,0.103-0.024,0.3-0.068,0.3H15.39c-0.043,0-0.069-0.201-0.069-0.305C15.321,2.026,15.624,1.722,15.996,1.722z M15.25,3.151h1.461
        L20.547,5.4h-9.134L15.25,3.151z M11.282,7.442v6.051h-0.69c-0.124,0-0.209,0.096-0.209,0.221v2.698
        c0,0.124,0.085,0.229,0.209,0.229h0.645l-0.614,6.745h-0.83c0.162-0.225,0.229-0.798,0.229-1.145c0-1.454-1.185-2.595-2.698-2.595
        c-0.851,0-1.686,0.456-2.205,1.198c-0.014,0.001-0.028,0.002-0.043,0.002c-0.542,0-1.029,0.248-1.358,0.64
        c-0.158-0.794-0.235-1.616-0.235-2.457C3.482,13.799,6.561,9.312,11.282,7.442z M5.654,26.083h4.724l-0.359,3.95
        C8.27,29.079,6.773,27.881,5.654,26.083z M21.942,30.047l-1.22-13.407h0.661c0.125,0,0.24-0.105,0.24-0.229v-2.698
        c0-0.125-0.116-0.221-0.24-0.221h-0.68l-0.002-6.058c2.875,1.171,5.22,3.377,6.567,6.156c-1.031,0.077-1.847,0.943-1.847,1.999
        c0,0.202,0.032,0.601,0.092,0.601h-1.216c-0.744,0-1.349,0.605-1.349,1.349s0.605,1.349,1.349,1.349h4.215
        c0,0.225,0.002,0.096,0.002,0.144C28.516,23.786,25.854,27.927,21.942,30.047z"></path>
    </g>
</svg>
