<?xml version="1.0" encoding="UTF-8" standalone="no"?>
<!-- Created with Inkscape (http://www.inkscape.org/) -->

<svg
    xmlns:dc="http://purl.org/dc/elements/1.1/"
    xmlns:cc="http://creativecommons.org/ns#"
    xmlns:rdf="http://www.w3.org/1999/02/22-rdf-syntax-ns#"
    xmlns:svg="http://www.w3.org/2000/svg"
    xmlns="http://www.w3.org/2000/svg"
    xmlns:sodipodi="http://sodipodi.sourceforge.net/DTD/sodipodi-0.dtd"
    xmlns:inkscape="http://www.inkscape.org/namespaces/inkscape"
    width="124"
    height="4"
    id="svg2"
    viewBox="0 0 32 32"
    version="1.1"
    inkscape:version="0.48.4 r9939"
    sodipodi:docname="dashed-line.svg">
  
    <g id="f1dbc712bddd64f8fed10040084097a5">
    <g id="Barcelona_1_">
        <path d="M20.485,19.792c-0.124,0-0.225-0.1-0.225-0.225v-5.841c0-0.124,0.101-0.225,0.225-0.225
            s0.225,0.101,0.225,0.225v5.841C20.71,19.691,20.609,19.792,20.485,19.792z"></path>
        <path d="M11.499,19.792c-0.125,0-0.226-0.1-0.226-0.225v-5.841c0-0.124,0.101-0.225,0.226-0.225
            c0.124,0,0.225,0.101,0.225,0.225v5.841C11.724,19.691,11.623,19.792,11.499,19.792z"></path>
        <path d="M20.485,22.937c-0.124,0-0.225-0.1-0.225-0.225v-1.797c0-0.124,0.101-0.225,0.225-0.225
            s0.225,0.101,0.225,0.225v1.797C20.71,22.837,20.609,22.937,20.485,22.937z"></path>
        <line x1="25.42" y1="12.802" x2="25.42" y2="12.802"></line>
        <path d="M25.421,13.027c-0.061,0-0.117-0.024-0.159-0.065c-0.043-0.043-0.065-0.101-0.065-0.16
            c0-0.061,0.022-0.119,0.065-0.16c0.082-0.083,0.233-0.083,0.316,0c0.043,0.041,0.064,0.099,0.064,0.16
            c0,0.059-0.021,0.117-0.064,0.157C25.535,13.002,25.479,13.027,25.421,13.027z"></path>
        <line x1="25.42" y1="14.149" x2="25.42" y2="14.149"></line>
        <path d="M25.421,14.375c-0.061,0-0.119-0.024-0.159-0.067c-0.043-0.041-0.065-0.099-0.065-0.157
            c0-0.061,0.022-0.119,0.065-0.16c0.08-0.083,0.233-0.083,0.316,0c0.043,0.041,0.067,0.099,0.067,0.16
            c0,0.059-0.024,0.117-0.067,0.157C25.535,14.351,25.479,14.375,25.421,14.375z"></path>
        <line x1="25.42" y1="15.498" x2="25.42" y2="15.498"></line>
        <path d="M25.421,15.723c-0.061,0-0.119-0.025-0.159-0.068c-0.043-0.04-0.068-0.098-0.068-0.157
            c0-0.061,0.025-0.12,0.068-0.16c0.082-0.083,0.23-0.083,0.316,0c0.043,0.041,0.067,0.1,0.067,0.16c0,0.059-0.024,0.117-0.067,0.157
            C25.535,15.698,25.479,15.723,25.421,15.723z"></path>
        <line x1="20.478" y1="9.656" x2="20.478" y2="9.656"></line>
        <path d="M20.476,9.882c-0.058,0-0.116-0.024-0.157-0.067c-0.042-0.041-0.067-0.099-0.067-0.157
            c0-0.061,0.025-0.117,0.067-0.16c0.083-0.083,0.233-0.083,0.317,0c0.042,0.04,0.064,0.099,0.064,0.16
            c0,0.059-0.022,0.117-0.064,0.157C20.596,9.857,20.537,9.882,20.476,9.882z"></path>
        <line x1="20.478" y1="11.004" x2="20.478" y2="11.004"></line>
        <path d="M20.476,11.23c-0.058,0-0.114-0.025-0.157-0.065c-0.042-0.043-0.065-0.101-0.065-0.16
            c0-0.061,0.023-0.117,0.065-0.16c0.083-0.083,0.233-0.083,0.317,0c0.042,0.043,0.067,0.102,0.067,0.16
            c0,0.059-0.025,0.117-0.067,0.157C20.593,11.205,20.537,11.23,20.476,11.23z"></path>
        <line x1="11.49" y1="9.656" x2="11.49" y2="9.656"></line>
        <path d="M11.489,9.882c-0.059,0-0.116-0.024-0.157-0.067c-0.042-0.041-0.067-0.099-0.067-0.157
            c0-0.061,0.025-0.12,0.067-0.16c0.083-0.083,0.233-0.083,0.317,0c0.042,0.04,0.064,0.099,0.064,0.16
            c0,0.059-0.022,0.117-0.064,0.157C11.608,9.857,11.551,9.882,11.489,9.882z"></path>
        <line x1="20.478" y1="8.309" x2="20.478" y2="8.309"></line>
        <path d="M20.479,8.534c-0.061,0-0.119-0.024-0.16-0.065c-0.042-0.042-0.065-0.101-0.065-0.16
            c0-0.061,0.023-0.119,0.065-0.159c0.081-0.083,0.233-0.083,0.317,0c0.042,0.042,0.067,0.099,0.067,0.159
            c0,0.059-0.025,0.117-0.067,0.158C20.593,8.509,20.537,8.534,20.479,8.534z"></path>
        <line x1="11.49" y1="8.309" x2="11.49" y2="8.309"></line>
        <path d="M11.491,8.534c-0.061,0-0.118-0.024-0.159-0.065c-0.042-0.042-0.065-0.101-0.065-0.16
            c0-0.061,0.023-0.119,0.065-0.159c0.081-0.083,0.233-0.083,0.317,0c0.042,0.041,0.066,0.099,0.066,0.159
            c0,0.059-0.024,0.117-0.066,0.158C11.606,8.509,11.551,8.534,11.491,8.534z"></path>
        <line x1="11.49" y1="11.004" x2="11.49" y2="11.004"></line>
        <path d="M11.491,11.23c-0.061,0-0.116-0.025-0.159-0.065c-0.042-0.043-0.067-0.101-0.067-0.16
            c0-0.061,0.025-0.117,0.067-0.16c0.083-0.083,0.236-0.083,0.317,0c0.042,0.041,0.064,0.099,0.064,0.16
            c0,0.059-0.022,0.117-0.064,0.157C11.608,11.205,11.551,11.23,11.491,11.23z"></path>
        <line x1="11.49" y1="12.352" x2="11.49" y2="12.352"></line>
        <path d="M11.491,12.578c-0.061,0-0.118-0.024-0.159-0.067c-0.042-0.041-0.065-0.098-0.065-0.157
            c0-0.061,0.023-0.119,0.065-0.16c0.083-0.083,0.233-0.083,0.317,0c0.042,0.041,0.064,0.099,0.064,0.16
            c0,0.059-0.022,0.117-0.064,0.157C11.608,12.553,11.551,12.578,11.491,12.578z"></path>
        <line x1="6.548" y1="13.251" x2="6.548" y2="13.251"></line>
        <path d="M6.547,13.477c-0.059,0-0.117-0.025-0.157-0.068c-0.042-0.04-0.065-0.098-0.065-0.157
            c0-0.061,0.023-0.12,0.065-0.16c0.081-0.083,0.236-0.083,0.317,0c0.042,0.041,0.064,0.1,0.064,0.16
            c0,0.059-0.022,0.117-0.064,0.157C6.666,13.452,6.607,13.477,6.547,13.477z"></path>
        <line x1="25.42" y1="11.454" x2="25.42" y2="11.454"></line>
        <path d="M25.421,11.679c-0.061,0-0.117-0.025-0.159-0.065c-0.043-0.043-0.068-0.101-0.068-0.16
            c0-0.061,0.025-0.12,0.068-0.16c0.082-0.083,0.23-0.083,0.316,0c0.043,0.04,0.064,0.099,0.064,0.16
            c0,0.059-0.021,0.117-0.064,0.157C25.535,11.654,25.479,11.679,25.421,11.679z"></path>
        <line x1="6.548" y1="11.903" x2="6.548" y2="11.903"></line>
        <path d="M6.549,12.128c-0.061,0-0.116-0.024-0.159-0.065c-0.042-0.043-0.067-0.101-0.067-0.16
            c0-0.061,0.025-0.12,0.067-0.16c0.083-0.083,0.231-0.083,0.317,0c0.042,0.04,0.066,0.099,0.066,0.16
            c0,0.059-0.024,0.117-0.066,0.157C6.664,12.104,6.607,12.128,6.549,12.128z"></path>
        <line x1="6.548" y1="14.599" x2="6.548" y2="14.599"></line>
        <path d="M6.547,14.824c-0.059,0-0.114-0.024-0.157-0.065c-0.042-0.043-0.067-0.101-0.067-0.16
            c0-0.061,0.025-0.119,0.067-0.16c0.085-0.083,0.233-0.083,0.317,0c0.042,0.041,0.064,0.099,0.064,0.16
            c0,0.059-0.022,0.117-0.064,0.157C6.666,14.8,6.607,14.824,6.547,14.824z"></path>
        <line x1="6.548" y1="15.947" x2="6.548" y2="15.947"></line>
        <path d="M6.547,16.172c-0.059,0-0.114-0.024-0.157-0.065c-0.042-0.045-0.065-0.101-0.065-0.16
            c0-0.061,0.023-0.12,0.065-0.16c0.083-0.085,0.236-0.083,0.317,0c0.042,0.04,0.064,0.099,0.064,0.16
            c0,0.059-0.022,0.117-0.064,0.157C6.666,16.148,6.607,16.172,6.547,16.172z"></path>
        <path d="M9.984,1.41C9.941,1.45,9.917,1.509,9.917,1.569c0,0.059,0.024,0.117,0.067,0.158
            c0.04,0.042,0.099,0.067,0.159,0.067c0.059,0,0.115-0.024,0.157-0.067c0.043-0.041,0.065-0.099,0.065-0.158
            c0-0.061-0.022-0.119-0.065-0.159C10.218,1.327,10.065,1.327,9.984,1.41z"></path>
        <path d="M12.997,1.41c-0.083-0.083-0.233-0.083-0.316,0c-0.043,0.04-0.065,0.099-0.065,0.159
            c0,0.059,0.022,0.117,0.065,0.158c0.04,0.042,0.099,0.067,0.156,0.067c0.062,0,0.117-0.024,0.16-0.067
            c0.043-0.041,0.067-0.099,0.067-0.158C13.064,1.509,13.04,1.45,12.997,1.41z"></path>
        <path d="M18.971,1.41c-0.043,0.04-0.065,0.099-0.065,0.159c0,0.059,0.022,0.117,0.065,0.158
            c0.04,0.042,0.099,0.067,0.159,0.067c0.059,0,0.117-0.024,0.157-0.067c0.043-0.041,0.065-0.099,0.065-0.158
            c0-0.061-0.022-0.119-0.065-0.159C19.204,1.327,19.054,1.327,18.971,1.41z"></path>
        <path d="M5.042,5.004c-0.043,0.041-0.065,0.099-0.065,0.16c0,0.059,0.022,0.117,0.065,0.157
            c0.042,0.043,0.099,0.067,0.157,0.067c0.061,0,0.119-0.024,0.159-0.067c0.043-0.04,0.065-0.099,0.065-0.157
            c0-0.061-0.022-0.117-0.065-0.16C5.275,4.921,5.125,4.921,5.042,5.004z"></path>
        <line x1="20.478" y1="12.352" x2="20.478" y2="12.352"></line>
        <path d="M20.476,12.578c-0.058,0-0.116-0.024-0.157-0.067c-0.042-0.041-0.067-0.098-0.067-0.157
            c0-0.061,0.025-0.119,0.067-0.16c0.083-0.083,0.233-0.083,0.317,0c0.042,0.041,0.067,0.099,0.067,0.16
            c0,0.059-0.025,0.117-0.067,0.157C20.596,12.553,20.537,12.578,20.476,12.578z"></path>
        <line x1="15.984" y1="18.193" x2="15.984" y2="18.193"></line>
        <path d="M15.984,18.419c-0.061,0-0.118-0.024-0.159-0.067c-0.042-0.042-0.065-0.098-0.065-0.157
            c0-0.061,0.023-0.117,0.065-0.16c0.085-0.083,0.233-0.083,0.317,0c0.042,0.041,0.064,0.099,0.064,0.16
            c0,0.059-0.022,0.117-0.064,0.157C16.102,18.395,16.044,18.419,15.984,18.419z"></path>
        <path d="M11.499,22.937c-0.125,0-0.226-0.1-0.226-0.225v-1.797c0-0.124,0.101-0.225,0.226-0.225
            c0.124,0,0.225,0.101,0.225,0.225v1.797C11.724,22.837,11.623,22.937,11.499,22.937z"></path>
        <path d="M26.748,11.809c-0.42-2.725-0.831-3.456-1.096-3.652V7.215h0.225c0.124,0,0.225-0.1,0.225-0.225
            c0-0.124-0.101-0.225-0.225-0.225h-0.225V6.262c0.507-0.107,0.889-0.557,0.891-1.094c0,0.057,0.024,0.114,0.066,0.154
            c0.04,0.043,0.099,0.067,0.159,0.067c0.059,0,0.115-0.024,0.157-0.067c0.043-0.04,0.065-0.099,0.065-0.157
            c0-0.061-0.022-0.117-0.065-0.16c-0.083-0.083-0.233-0.083-0.316,0c-0.042,0.042-0.065,0.097-0.066,0.156
            c-0.002-0.617-0.504-1.118-1.121-1.12c0.059,0,0.114-0.025,0.156-0.067c0.043-0.041,0.067-0.099,0.067-0.158
            c0-0.061-0.024-0.117-0.067-0.159c-0.083-0.083-0.234-0.083-0.316,0c-0.043,0.041-0.065,0.099-0.065,0.159
            c0,0.059,0.022,0.117,0.065,0.158c0.039,0.042,0.097,0.066,0.156,0.067c-0.617,0-1.119,0.502-1.121,1.12
            c-0.001-0.059-0.025-0.116-0.066-0.156c-0.084-0.083-0.234-0.083-0.317,0c-0.042,0.043-0.067,0.102-0.067,0.16
            c0,0.059,0.025,0.117,0.067,0.157c0.043,0.043,0.099,0.067,0.157,0.067c0.062,0,0.119-0.024,0.16-0.067
            c0.041-0.04,0.065-0.097,0.066-0.154c0.002,0.543,0.392,0.996,0.906,1.097v0.501h-0.225c-0.124,0-0.225,0.101-0.225,0.225
            c0,0.125,0.101,0.225,0.225,0.225h0.225v0.942c-0.156,0.116-0.364,0.419-0.595,1.209c-0.882-0.786-1.87-1.453-2.942-1.977
            c-0.37-2.043-0.721-2.646-0.956-2.824V3.621h0.225c0.124,0,0.225-0.101,0.225-0.225c0-0.125-0.101-0.225-0.225-0.225H20.71V2.667
            c0.507-0.107,0.889-0.557,0.89-1.095c0.001,0.057,0.025,0.115,0.067,0.154c0.042,0.042,0.099,0.067,0.159,0.067
            c0.059,0,0.115-0.024,0.157-0.065c0.043-0.042,0.065-0.101,0.065-0.16c0-0.061-0.022-0.119-0.065-0.159
            c-0.083-0.083-0.233-0.083-0.316,0c-0.042,0.04-0.065,0.096-0.067,0.156c-0.001-0.617-0.503-1.118-1.12-1.12
            c0.059,0,0.116-0.024,0.156-0.067c0.042-0.041,0.067-0.099,0.067-0.157c0-0.061-0.025-0.117-0.067-0.16
            c-0.084-0.083-0.236-0.083-0.317,0c-0.042,0.043-0.067,0.099-0.067,0.16c0,0.058,0.025,0.117,0.067,0.157
            c0.04,0.042,0.098,0.066,0.157,0.067c-0.618,0-1.122,0.504-1.122,1.123c0,0.545,0.391,1,0.907,1.102v0.5h-0.225
            c-0.125,0-0.225,0.101-0.225,0.225c0,0.124,0.1,0.225,0.225,0.225h0.225v0.938c-0.2,0.145-0.486,0.595-0.797,1.993
            c-1.104-0.307-2.265-0.475-3.465-0.475c-1.208,0-2.377,0.17-3.487,0.481c-0.307-1.386-0.589-1.842-0.788-1.993V3.621h0.225
            c0.124,0,0.225-0.101,0.225-0.225c0-0.125-0.101-0.225-0.225-0.225h-0.225V2.667c0.508-0.107,0.891-0.559,0.891-1.099
            c0-0.618-0.503-1.121-1.121-1.123c0.058,0,0.116-0.024,0.156-0.067c0.042-0.041,0.066-0.099,0.066-0.157
            c0-0.061-0.024-0.117-0.066-0.16c-0.084-0.083-0.236-0.083-0.317,0c-0.042,0.041-0.067,0.099-0.067,0.16
            c0,0.058,0.025,0.117,0.067,0.157c0.04,0.042,0.098,0.066,0.157,0.067c-0.618,0-1.122,0.504-1.122,1.123
            c0,0.545,0.391,1,0.906,1.102v0.5h-0.225c-0.124,0-0.225,0.101-0.225,0.225c0,0.124,0.101,0.225,0.225,0.225h0.225v0.938
            c-0.235,0.171-0.59,0.768-0.963,2.841C9.242,7.925,8.257,8.592,7.378,9.376c-0.231-0.798-0.44-1.103-0.598-1.22V7.215h0.226
            c0.124,0,0.225-0.1,0.225-0.225c0-0.124-0.101-0.225-0.225-0.225H6.78V6.262c0.507-0.107,0.889-0.557,0.891-1.094
            c0.001,0.057,0.025,0.114,0.066,0.154c0.041,0.043,0.1,0.067,0.16,0.067c0.059,0,0.114-0.024,0.157-0.067
            c0.042-0.04,0.067-0.099,0.067-0.157c0-0.061-0.025-0.117-0.067-0.16c-0.084-0.083-0.234-0.083-0.317,0
            C7.696,5.046,7.672,5.102,7.671,5.16c-0.002-0.617-0.503-1.118-1.12-1.12c0.058,0,0.113-0.025,0.156-0.067
            c0.042-0.041,0.066-0.099,0.066-0.158c0-0.061-0.024-0.117-0.066-0.159c-0.084-0.083-0.234-0.083-0.317,0
            C6.348,3.697,6.324,3.755,6.324,3.816c0,0.059,0.023,0.117,0.065,0.158C6.43,4.016,6.486,4.04,6.547,4.041
            c-0.619,0-1.122,0.504-1.122,1.123c0,0.545,0.391,1,0.906,1.101v0.501H6.106c-0.124,0-0.225,0.101-0.225,0.225
            c0,0.125,0.101,0.225,0.225,0.225h0.225v0.942C6.066,8.354,5.652,9.089,5.23,11.84c-1.383,2.06-2.192,4.536-2.192,7.198
            C3.038,26.185,8.853,32,15.999,32c7.147,0,12.962-5.815,12.962-12.962C28.961,16.362,28.144,13.875,26.748,11.809z M24.746,5.164
            c0-0.372,0.302-0.674,0.674-0.674c0.371,0,0.674,0.303,0.674,0.674s-0.303,0.674-0.674,0.674
            C25.048,5.837,24.746,5.535,24.746,5.164z M19.803,1.569c0-0.372,0.303-0.674,0.675-0.674c0.371,0,0.674,0.302,0.674,0.674
            s-0.303,0.674-0.674,0.674C20.105,2.243,19.803,1.94,19.803,1.569z M15.999,6.526c1.169,0,2.299,0.165,3.373,0.466
            c-0.096,0.484-0.193,1.06-0.291,1.749c-0.391,2.765-0.611,6.206-0.623,9.718l-0.886-0.177c-0.009-0.522-0.533-4.256-1.573-4.256
            c-1.036,0-1.561,3.709-1.571,4.25l-0.916,0.184c-0.012-3.514-0.231-6.955-0.62-9.718c-0.097-0.687-0.193-1.261-0.288-1.744
            C13.684,6.692,14.822,6.526,15.999,6.526z M17.123,18.295c0,0.62-0.504,1.124-1.124,1.124c-0.619,0-1.123-0.504-1.123-1.124
            c0-1.452,0.821-3.819,1.123-3.819C16.302,14.476,17.123,16.844,17.123,18.295z M10.816,1.569c0-0.372,0.303-0.674,0.674-0.674
            c0.372,0,0.675,0.302,0.675,0.674s-0.303,0.674-0.675,0.674C11.119,2.243,10.816,1.94,10.816,1.569z M5.874,5.164
            c0-0.372,0.303-0.674,0.674-0.674c0.372,0,0.674,0.303,0.674,0.674S6.92,5.837,6.548,5.837C6.177,5.837,5.874,5.535,5.874,5.164z
             M4.534,24.042c-0.672-1.534-1.047-3.226-1.047-5.004c0-2.21,0.578-4.287,1.588-6.091c-0.35,2.737-0.541,6.052-0.541,9.417V24.042z
             M8.129,28.755c-0.48-0.39-0.931-0.813-1.349-1.269V17.32c0-0.124-0.1-0.225-0.225-0.225c-0.124,0-0.225,0.101-0.225,0.225v9.646
            c-0.51-0.621-0.963-1.291-1.348-2.002v-2.601c0-7.759,1.015-13.325,1.572-13.814c0.558,0.489,1.573,6.056,1.573,13.814V28.755z
             M9.477,29.711c-0.309-0.189-0.608-0.393-0.898-0.608v-6.739c0-3.614-0.221-7.172-0.622-10.016
            c-0.151-1.078-0.304-1.882-0.449-2.484c0.812-0.751,1.723-1.397,2.711-1.914c-0.041,0.25-0.081,0.517-0.121,0.804
            c-0.399,2.843-0.62,6.4-0.62,10.016V29.711z M11.724,30.793V24.06c0-0.124-0.101-0.225-0.225-0.225
            c-0.125,0-0.226,0.101-0.226,0.225v6.558c-0.463-0.189-0.914-0.404-1.348-0.646V18.77c0-7.759,1.013-13.325,1.569-13.815
            c0.555,0.489,1.565,6.04,1.568,13.779c0,0.067,0.03,0.131,0.082,0.174c0.052,0.042,0.12,0.059,0.187,0.046l1.156-0.232
            c0.094,0.328,0.288,0.612,0.552,0.815l-0.099,0.434l-1.697,0.339c-0.122,0.024-0.201,0.143-0.177,0.265
            c0.024,0.121,0.143,0.201,0.265,0.175l1.5-0.299l-0.319,1.404l-1.261,0.252c-0.105,0.021-0.181,0.113-0.181,0.221v5.871
            l-0.644,2.83C12.189,30.957,11.955,30.877,11.724,30.793z M14.404,22.335l-0.884,3.887v-3.709L14.404,22.335z M15.999,31.55
            c-0.457,0-0.908-0.026-1.354-0.074l0.335-1.43c0.002-0.008,0.231-0.819,1.009-0.819c0.768,0,0.997,0.786,1.004,0.811l0.337,1.44
            C16.893,31.525,16.448,31.55,15.999,31.55z M18.521,31.295c-0.001,0-0.002,0.001-0.003,0.001c-0.197,0.041-0.396,0.076-0.598,0.107
            c-0.007,0.001-0.014,0.002-0.021,0.004c-0.04,0.006-0.081,0.009-0.122,0.015l-0.349-1.493c-0.108-0.398-0.549-1.15-1.442-1.15
            c-0.891,0-1.331,0.752-1.441,1.158l-0.348,1.48c-0.451-0.065-0.898-0.154-1.336-0.267l2.587-11.385
            c0.103,0.038,0.208,0.067,0.319,0.083v7.806c0,0.125,0.1,0.225,0.225,0.225c0.124,0,0.225-0.1,0.225-0.225v-7.803
            c0.105-0.015,0.207-0.042,0.305-0.076l2.586,11.383C18.914,31.209,18.718,31.255,18.521,31.295z M17.562,22.332l0.9,0.181v3.782
            L17.562,22.332z M22.058,29.981c-0.434,0.24-0.885,0.454-1.348,0.642V24.06c0-0.124-0.101-0.225-0.225-0.225
            s-0.225,0.101-0.225,0.225v6.738c-0.237,0.086-0.477,0.167-0.72,0.239l-0.629-2.766v-5.943c0-0.107-0.075-0.199-0.181-0.221
            l-1.277-0.255l-0.318-1.401l1.5,0.299c0.015,0.003,0.029,0.004,0.044,0.004c0.105,0,0.199-0.074,0.221-0.18
            c0.023-0.122-0.055-0.241-0.177-0.265l-1.697-0.339l-0.094-0.413c0.274-0.204,0.479-0.494,0.576-0.83l1.129,0.226
            c0.066,0.012,0.135-0.004,0.187-0.046c0.053-0.043,0.082-0.106,0.082-0.174c0.004-7.739,1.018-13.291,1.575-13.779
            c0.559,0.489,1.576,6.056,1.576,13.815V29.981z M23.405,29.115c-0.29,0.214-0.589,0.417-0.898,0.605V18.77
            c0-3.613-0.222-7.17-0.623-10.016c-0.042-0.293-0.083-0.565-0.124-0.818c0.991,0.517,1.905,1.163,2.72,1.915
            c-0.146,0.604-0.3,1.412-0.452,2.498c-0.401,2.844-0.622,6.402-0.622,10.016V29.115z M27,24.992
            c-0.385,0.709-0.838,1.376-1.348,1.994V16.871c0-0.124-0.101-0.225-0.225-0.225s-0.225,0.101-0.225,0.225v10.633
            c-0.418,0.454-0.868,0.876-1.348,1.265v-6.405c0-7.759,1.015-13.325,1.572-13.814C25.985,9.039,27,14.605,27,22.364V24.992z
             M26.903,12.914c1.022,1.811,1.608,3.9,1.608,6.124c0,1.792-0.38,3.498-1.062,5.041v-1.715
            C27.449,18.985,27.257,15.657,26.903,12.914z"></path>
    </g>
    </g>
</svg>
