<?xml version="1.0" encoding="UTF-8" standalone="no"?>
<!-- Created with Inkscape (http://www.inkscape.org/) -->

<svg
    xmlns:dc="http://purl.org/dc/elements/1.1/"
    xmlns:cc="http://creativecommons.org/ns#"
    xmlns:rdf="http://www.w3.org/1999/02/22-rdf-syntax-ns#"
    xmlns:svg="http://www.w3.org/2000/svg"
    xmlns="http://www.w3.org/2000/svg"
    xmlns:sodipodi="http://sodipodi.sourceforge.net/DTD/sodipodi-0.dtd"
    xmlns:inkscape="http://www.inkscape.org/namespaces/inkscape"
    width="124"
    height="4"
    id="svg2"
    viewBox="0 0 32 32"
    version="1.1"
    inkscape:version="0.48.4 r9939"
    sodipodi:docname="dashed-line.svg">
  
    <g id="a6ab6407cb7a6d77415a8791420faaff">
    <g id="Berlin_1_">
        <path d="M16.217,6.065V4.946h0.674c0.124,0,0.226-0.101,0.226-0.225c0-0.125-0.102-0.225-0.226-0.225h-0.674V0.225
            C16.217,0.101,16.115,0,15.992,0c-0.125,0-0.226,0.101-0.226,0.225v4.271h-0.674c-0.124,0-0.225,0.101-0.225,0.225
            c0,0.124,0.101,0.225,0.225,0.225h0.674v1.12C8.722,6.19,3.029,11.956,3.029,19.03c0,7.152,5.818,12.97,12.97,12.97
            c7.152,0,12.971-5.818,12.971-12.97C28.97,11.951,23.269,6.182,16.217,6.065z M18.523,16.095c0.04,0.043,0.099,0.068,0.159,0.068
            c0.059,0,0.117-0.025,0.157-0.066c0.034-0.033,0.053-0.078,0.061-0.125c0.571,0.537,0.995,1.227,1.204,2.005
            c-0.079-0.025-0.173-0.01-0.232,0.05c-0.043,0.043-0.065,0.099-0.065,0.16c0,0.058,0.022,0.117,0.065,0.157
            c0.04,0.043,0.099,0.067,0.159,0.067c0.059,0,0.115-0.024,0.155-0.065c0.043,0.24,0.069,0.486,0.069,0.739
            c0,0.062-0.008,0.122-0.01,0.183c-0.008-0.044-0.024-0.084-0.057-0.117c-0.084-0.083-0.234-0.083-0.317,0
            c-0.043,0.043-0.065,0.099-0.065,0.16c0,0.058,0.022,0.117,0.065,0.157c0.04,0.043,0.099,0.068,0.159,0.068
            c0.06,0,0.117-0.025,0.158-0.068c0.024-0.023,0.04-0.054,0.051-0.085c-0.02,0.289-0.068,0.571-0.144,0.841
            c-0.078-0.022-0.167-0.007-0.225,0.051c-0.043,0.043-0.065,0.099-0.065,0.16c0,0.008,0.004,0.016,0.005,0.025h-0.909
            c0.001-0.009,0.005-0.017,0.005-0.025c0-0.061-0.024-0.119-0.067-0.16c-0.083-0.083-0.236-0.083-0.316,0
            c-0.043,0.041-0.065,0.099-0.065,0.16c0,0.008,0.004,0.016,0.005,0.025h-0.911c0.001-0.009,0.005-0.017,0.005-0.025
            c0-0.061-0.022-0.117-0.065-0.16c-0.083-0.083-0.231-0.085-0.317,0c-0.042,0.043-0.067,0.099-0.067,0.16
            c0,0.008,0.005,0.016,0.006,0.025h-0.91c0.001-0.009,0.005-0.017,0.005-0.025c0-0.061-0.022-0.117-0.064-0.16
            c-0.084-0.083-0.234-0.085-0.317,0c-0.042,0.043-0.067,0.099-0.067,0.16c0,0.008,0.004,0.016,0.005,0.025h-0.907
            c0.001-0.009,0.005-0.017,0.005-0.025c0-0.061-0.024-0.117-0.066-0.16c-0.086-0.083-0.234-0.083-0.317,0
            c-0.043,0.043-0.065,0.099-0.065,0.16c0,0.008,0.004,0.016,0.005,0.025h-0.909c0.001-0.009,0.005-0.017,0.005-0.025
            c0-0.061-0.024-0.119-0.067-0.16c-0.083-0.083-0.233-0.083-0.316,0c-0.043,0.041-0.068,0.099-0.068,0.16
            c0,0.008,0.005,0.016,0.006,0.025h-0.909c0.001-0.009,0.005-0.017,0.005-0.025c0-0.061-0.022-0.117-0.065-0.16
            c-0.057-0.057-0.144-0.072-0.22-0.051c-0.06-0.215-0.102-0.438-0.127-0.664h3.561c0.744,0,1.349-0.605,1.349-1.349
            c0-0.744-0.604-1.349-1.349-1.349h-2.534c-0.013-0.163-0.049-0.319-0.104-0.466c0.121-0.151,0.254-0.292,0.396-0.425
            c0.007,0.046,0.025,0.092,0.061,0.125c0.04,0.043,0.099,0.068,0.159,0.068c0.059,0,0.116-0.025,0.157-0.066
            c0.043-0.042,0.067-0.101,0.067-0.159c0-0.061-0.024-0.119-0.067-0.16c-0.026-0.026-0.06-0.042-0.096-0.051
            c0.671-0.529,1.504-0.86,2.41-0.907c0.002,0.056,0.025,0.112,0.066,0.151c0.041,0.043,0.099,0.068,0.157,0.068
            c0.062,0,0.119-0.025,0.16-0.068c0.04-0.038,0.061-0.092,0.062-0.146c0.907,0.046,1.74,0.375,2.411,0.903
            c-0.035,0.009-0.068,0.024-0.093,0.051c-0.043,0.041-0.065,0.099-0.065,0.16C18.458,15.996,18.48,16.055,18.523,16.095z
             M15.999,31.55c-0.454,0-0.902-0.025-1.344-0.073l0.1-2.251h1.012v1.124c0,0.124,0.101,0.225,0.226,0.225
            c0.123,0,0.225-0.101,0.225-0.225v-1.124h0.996l0.101,2.255C16.881,31.527,16.443,31.55,15.999,31.55z M13.969,28.777v-0.899h4.047
            v0.899H13.969z M14.835,27.428l0.04-0.899h2.218l0.04,0.899H14.835z M13.969,26.079V25.18h4.047v0.899H13.969z M14.955,24.73
            L15,23.698c0.317,0.068,0.646,0.107,0.984,0.107c0.337,0,0.665-0.037,0.983-0.104l0.045,1.029H14.955z M15.984,23.356
            c-1.096,0-2.093-0.418-2.849-1.099h5.698C18.076,22.938,17.079,23.356,15.984,23.356z M12.704,21.808
            c-0.227-0.274-0.423-0.574-0.577-0.899h7.714c-0.154,0.323-0.343,0.626-0.569,0.899H12.704z M7.169,16.975
            c-0.111-0.195-0.178-0.462-0.178-0.716c0-0.855,0.693-1.552,1.546-1.552c0.719,0,1.336,0.489,1.501,1.189
            c0.018,0.074,0.07,0.134,0.143,0.16c0.071,0.025,0.151,0.013,0.212-0.032c0.217-0.166,0.47-0.253,0.729-0.253
            c0.666,0,1.209,0.547,1.209,1.22c0,0.013-0.003,0.036-0.004,0.05c-0.004,0.015-0.005,0.031-0.005,0.047
            c0,0.124,0.101,0.225,0.225,0.225h2.763c0.496,0,0.899,0.403,0.899,0.899c0,0.497-0.403,0.899-0.899,0.899H5.418
            c-0.497,0-0.899-0.403-0.899-0.899c0-0.496,0.402-0.899,0.899-0.899h1.556c0.08,0,0.154-0.043,0.194-0.112
            C7.208,17.13,7.209,17.044,7.169,16.975z M18.016,14.829c-0.617-0.295-1.304-0.465-2.031-0.465c-0.723,0-1.405,0.164-2.016,0.457
            v-1.331h4.047V14.829z M17.116,13.04h-2.248v-2.248h2.248V13.04z M13.969,10.342V9.442h4.047v0.899H13.969z M3.479,19.03
            c0-6.826,5.492-12.39,12.288-12.515v1.129h-0.674c-0.124,0-0.225,0.1-0.225,0.225c0,0.124,0.101,0.225,0.225,0.225h0.674v0.899
            h-2.022c-0.125,0-0.226,0.1-0.226,0.225v1.349c0,0.124,0.101,0.225,0.226,0.225h0.674v2.248h-0.674c-0.125,0-0.226,0.1-0.226,0.225
            v1.798c0,0.001,0,0.002,0,0.002c-0.403,0.25-0.768,0.558-1.079,0.914c-0.303-0.4-0.78-0.659-1.317-0.659
            c-0.258,0-0.509,0.062-0.739,0.179c-0.301-0.745-1.021-1.243-1.846-1.243c-1.101,0-1.995,0.898-1.995,2.001
            c0,0.205,0.032,0.412,0.092,0.603H5.418c-0.744,0-1.35,0.605-1.35,1.349c0,0.744,0.605,1.349,1.35,1.349h5.88
            c0.191,1.894,1.501,3.458,3.258,4.021l-0.052,1.15h-0.76c-0.125,0-0.226,0.1-0.226,0.225v1.349c0,0.124,0.101,0.225,0.226,0.225
            h0.68l-0.04,0.899h-0.64c-0.125,0-0.226,0.1-0.226,0.225v1.349c0,0.124,0.101,0.225,0.226,0.225h0.559l-0.098,2.194
            C8.148,30.546,3.479,25.324,3.479,19.03z M17.763,31.424l-0.099-2.197h0.576c0.124,0,0.225-0.101,0.225-0.225v-1.349
            c0-0.125-0.101-0.225-0.225-0.225h-0.656l-0.04-0.899h0.696c0.124,0,0.225-0.101,0.225-0.225v-1.349
            c0-0.125-0.101-0.225-0.225-0.225h-0.776l-0.052-1.147c1.907-0.607,3.293-2.394,3.293-4.499c0-1.693-0.899-3.178-2.242-4.011
            c0-0.004,0.002-0.007,0.002-0.011v-1.798c0-0.125-0.101-0.225-0.225-0.225h-0.675v-2.248h0.675c0.124,0,0.225-0.101,0.225-0.225
            V9.218c0-0.125-0.101-0.225-0.225-0.225h-2.023V8.094h0.674c0.124,0,0.226-0.101,0.226-0.225c0-0.125-0.102-0.225-0.226-0.225
            h-0.674V6.515c6.804,0.117,12.304,5.685,12.304,12.515c0,1.345-0.216,2.639-0.61,3.854c-0.31-0.376-0.768-0.604-1.269-0.604
            c-0.135,0-0.268,0.016-0.396,0.048c-0.433-0.904-1.329-1.477-2.339-1.477c-1.435,0-2.602,1.172-2.602,2.614
            c0,0.129,0.012,0.243,0.032,0.365h-0.183c-0.743,0-1.349,0.605-1.349,1.349c0,0.744,0.605,1.349,1.349,1.349h4.865
            C24.068,29.13,21.128,30.948,17.763,31.424z M26.341,26.079h-5.187c-0.496,0-0.898-0.403-0.898-0.899
            c0-0.497,0.402-0.899,0.898-0.899h0.454c0.067,0,0.132-0.031,0.174-0.083c0.043-0.052,0.061-0.121,0.046-0.187
            c-0.046-0.222-0.074-0.366-0.074-0.544c0-1.193,0.966-2.164,2.152-2.164c0.893,0,1.68,0.543,2.003,1.382
            c0.021,0.056,0.064,0.101,0.119,0.125c0.055,0.024,0.117,0.025,0.173,0.004c0.141-0.056,0.288-0.083,0.44-0.083
            c0.458,0,0.876,0.274,1.083,0.688C27.37,24.364,26.903,25.256,26.341,26.079z"></path>
        <path d="M15.982,12.116c0.062,0,0.117-0.024,0.16-0.067c0.042-0.041,0.067-0.1,0.067-0.157
            c0-0.061-0.025-0.12-0.067-0.16c-0.084-0.083-0.234-0.083-0.317,0c-0.042,0.041-0.067,0.1-0.067,0.16
            c0,0.058,0.025,0.117,0.067,0.159C15.868,12.091,15.924,12.116,15.982,12.116z"></path>
        <path d="M17.174,19.15c-0.042,0.043-0.067,0.099-0.067,0.16c0,0.058,0.025,0.117,0.067,0.157
            c0.041,0.043,0.1,0.068,0.157,0.068c0.062,0,0.119-0.025,0.16-0.068c0.043-0.041,0.065-0.099,0.065-0.157
            c0-0.061-0.022-0.117-0.065-0.16C17.408,19.067,17.26,19.065,17.174,19.15z"></path>
        <path d="M18.523,19.15c-0.043,0.041-0.065,0.099-0.065,0.16c0,0.058,0.022,0.117,0.065,0.157
            c0.04,0.043,0.099,0.068,0.159,0.068c0.059,0,0.117-0.025,0.157-0.066c0.043-0.042,0.067-0.101,0.067-0.159
            c0-0.061-0.024-0.119-0.067-0.16C18.757,19.067,18.604,19.067,18.523,19.15z"></path>
        <path d="M17.174,18.026c-0.042,0.043-0.067,0.099-0.067,0.16c0,0.058,0.025,0.117,0.067,0.157
            c0.041,0.043,0.1,0.067,0.157,0.067c0.062,0,0.119-0.024,0.16-0.067c0.043-0.041,0.065-0.099,0.065-0.157
            c0-0.061-0.022-0.117-0.065-0.16C17.408,17.942,17.26,17.941,17.174,18.026z"></path>
        <path d="M18.523,18.026c-0.043,0.04-0.065,0.099-0.065,0.16c0,0.058,0.022,0.117,0.065,0.157
            c0.04,0.043,0.099,0.067,0.159,0.067c0.059,0,0.117-0.024,0.157-0.065c0.043-0.042,0.067-0.101,0.067-0.159
            c0-0.061-0.024-0.12-0.067-0.16C18.757,17.942,18.604,17.942,18.523,18.026z"></path>
        <path d="M17.174,16.902c-0.042,0.043-0.067,0.099-0.067,0.16c0,0.058,0.025,0.117,0.067,0.157
            c0.041,0.043,0.1,0.068,0.157,0.068c0.062,0,0.119-0.025,0.16-0.068c0.043-0.04,0.065-0.099,0.065-0.157
            c0-0.061-0.022-0.117-0.065-0.16C17.408,16.818,17.26,16.817,17.174,16.902z"></path>
        <path d="M18.523,17.219c0.04,0.043,0.099,0.068,0.159,0.068c0.059,0,0.117-0.025,0.157-0.066
            c0.043-0.042,0.067-0.101,0.067-0.159c0-0.061-0.024-0.119-0.067-0.16c-0.083-0.083-0.236-0.083-0.316,0
            c-0.043,0.041-0.065,0.099-0.065,0.16C18.458,17.12,18.48,17.179,18.523,17.219z"></path>
        <path d="M15.825,15.778c-0.042,0.043-0.067,0.099-0.067,0.16c0,0.058,0.025,0.117,0.067,0.157
            c0.041,0.043,0.099,0.068,0.157,0.068c0.062,0,0.119-0.025,0.16-0.068c0.042-0.04,0.064-0.099,0.064-0.157
            c0-0.061-0.022-0.117-0.064-0.16C16.059,15.694,15.908,15.692,15.825,15.778z"></path>
        <path d="M14.477,15.778c-0.043,0.043-0.065,0.099-0.065,0.16c0,0.058,0.022,0.117,0.065,0.157
            c0.04,0.043,0.099,0.068,0.159,0.068c0.059,0,0.117-0.025,0.158-0.068c0.042-0.04,0.066-0.099,0.066-0.157
            c0-0.061-0.024-0.117-0.066-0.16C14.708,15.694,14.56,15.694,14.477,15.778z"></path>
        <path d="M17.174,15.778c-0.042,0.043-0.067,0.099-0.067,0.16c0,0.058,0.025,0.117,0.067,0.157
            c0.041,0.043,0.1,0.068,0.157,0.068c0.062,0,0.119-0.025,0.16-0.068c0.043-0.04,0.065-0.099,0.065-0.157
            c0-0.061-0.022-0.117-0.065-0.16C17.408,15.694,17.26,15.692,17.174,15.778z"></path>
    </g>
    </g>
</svg>
