<?xml version="1.0" encoding="UTF-8" standalone="no"?>
<!-- Created with Inkscape (http://www.inkscape.org/) -->

<svg
    xmlns:dc="http://purl.org/dc/elements/1.1/"
    xmlns:cc="http://creativecommons.org/ns#"
    xmlns:rdf="http://www.w3.org/1999/02/22-rdf-syntax-ns#"
    xmlns:svg="http://www.w3.org/2000/svg"
    xmlns="http://www.w3.org/2000/svg"
    xmlns:sodipodi="http://sodipodi.sourceforge.net/DTD/sodipodi-0.dtd"
    xmlns:inkscape="http://www.inkscape.org/namespaces/inkscape"
    width="124"
    height="4"
    id="svg2"
    viewBox="0 0 32 32"
    version="1.1"
    inkscape:version="0.48.4 r9939"
    sodipodi:docname="dashed-line.svg">
  
    <g id="e4470dce92e3326b85e186ec06fc03fd">
    <g id="Cape_Town_1_">
        <path d="M15.984,10.316c-0.62,0-1.125-0.504-1.125-1.124c0-0.62,0.505-1.125,1.125-1.125
            c0.619,0,1.124,0.504,1.124,1.125C17.108,9.812,16.604,10.316,15.984,10.316z M15.984,8.518c-0.372,0-0.675,0.302-0.675,0.675
            c0,0.371,0.303,0.674,0.675,0.674c0.371,0,0.674-0.303,0.674-0.674C16.658,8.82,16.355,8.518,15.984,8.518z"></path>
        <path d="M18.465,6.302V4.719c0-0.124-0.084-0.223-0.209-0.223h-0.245c-0.061-0.675-0.445-1.15-0.895-1.478V1.573
            c0-0.124-0.086-0.224-0.21-0.224h-0.689V0.225C16.217,0.1,16.116,0,15.992,0c-0.125,0-0.226,0.1-0.226,0.225v1.125h-0.661
            c-0.124,0-0.237,0.1-0.237,0.224v1.436c-0.45,0.328-0.822,0.813-0.883,1.488h-0.23c-0.124,0-0.236,0.099-0.236,0.223v1.585
            C7.551,7.466,3.029,12.727,3.029,19.03c0,7.152,5.818,12.97,12.97,12.97c7.152,0,12.971-5.818,12.971-12.97
            C28.97,12.722,24.44,7.457,18.465,6.302z M18.465,6.76c4.495,0.902,8.127,4.214,9.482,8.528h-1.839v-0.68
            c0-0.124-0.075-0.219-0.199-0.219h-0.7v-1.578c0-0.124-0.1-0.225-0.225-0.225c-0.124,0-0.225,0.101-0.225,0.225v1.578h-0.651
            c-0.124,0-0.248,0.096-0.248,0.219v0.68h-3.597v-1.798h0.243c0.125,0,0.206-0.105,0.206-0.229v-1.797
            c0-0.125-0.081-0.221-0.206-0.221h-1.143V7.417c0-0.124-0.083-0.222-0.207-0.222h-0.692V6.76z M25.659,14.838v1.349h-1.349v-1.349
            H25.659z M17.565,23.381v-0.899h1.799v0.899H17.565z M19.364,23.831v2.248h-1.799v-2.248H19.364z M17.116,22.032v-1.349h2.697
            v1.349H17.116z M7.157,20.234l-0.3-0.899h18.281l-0.3,0.899H7.157z M16.891,23.831h0.226v2.248h-2.248v-2.248h0.225
            c0.124,0,0.225-0.101,0.225-0.225c0-0.125-0.101-0.225-0.225-0.225h-0.225v-0.899h0.237c0.125,0,0.212-0.108,0.212-0.232v-1.566
            h1.349v1.566c0,0.124,0.116,0.232,0.24,0.232h0.21v0.899h-0.226c-0.124,0-0.225,0.1-0.225,0.225
            C16.666,23.73,16.767,23.831,16.891,23.831z M12.619,23.381v-0.899h1.799v0.899H12.619z M14.418,23.831v2.248h-1.799v-2.248H14.418
            z M12.17,22.032v-1.349h2.698v1.349H12.17z M7.709,18.885l8.289-5.793l8.288,5.793H7.709z M13.069,13.04h-1.349V11.69h1.349V13.04z
             M13.305,13.489c0.125,0,0.214-0.105,0.214-0.229V11.69h1.35v1.626l-2.698,1.888v-1.496v-0.22H13.305z M15.317,13.003V11.69h1.349
            v1.324l-0.547-0.388c-0.077-0.054-0.183-0.054-0.261,0L15.317,13.003z M18.707,13.489h1.106v0.22v1.506l-2.697-1.887V11.69h1.349
            v1.569C18.465,13.384,18.582,13.489,18.707,13.489z M18.914,13.04V11.69h1.35v1.349H18.914z M15.317,1.798h1.349v0.994
            c-0.225-0.077-0.442-0.121-0.682-0.121c-0.234,0-0.442,0.042-0.667,0.115V1.798z M15.998,3.122c0.801,0,1.463,0.7,1.562,1.375
            h-3.123C14.535,3.822,15.197,3.122,15.998,3.122z M13.969,5.394V4.946h4.047v0.448v1.631l-1.91-1.15
            c-0.071-0.042-0.162-0.042-0.233,0l-1.903,1.14V5.394z M13.747,7.644c0.041,0,0.081-0.012,0.116-0.034l2.135-1.279l2.135,1.279
            c0.035,0.021,0.075,0.034,0.115,0.034h0.666v3.597h-5.845V7.644H13.747z M13.519,6.763v0.431h-0.664
            c-0.124,0-0.235,0.098-0.235,0.222v3.825h-1.114c-0.124,0-0.234,0.096-0.234,0.221v1.797c0,0.124,0.11,0.229,0.234,0.229h0.216
            v1.798H8.123v-0.68c0-0.124-0.096-0.219-0.22-0.219h-0.68v-1.578c0-0.124-0.101-0.225-0.225-0.225s-0.225,0.101-0.225,0.225v1.578
            H6.103c-0.124,0-0.228,0.096-0.228,0.219v0.68H4.052C5.405,10.979,9.031,7.669,13.519,6.763z M7.674,14.838v1.349h-1.35v-1.349
            H7.674z M3.479,19.03c0-1.139,0.154-2.243,0.44-3.292h0.009h1.947v0.669c0,0.124,0.104,0.23,0.228,0.23h1.801
            c0.124,0,0.22-0.106,0.22-0.23v-0.669h3.303l-4.501,3.147h-0.38c-0.072,0-0.14,0.032-0.183,0.091
            c-0.042,0.058-0.054,0.135-0.03,0.204l0.351,1.055H3.537C3.5,19.837,3.479,19.436,3.479,19.03z M7.224,23.381H6.999
            c-0.124,0-0.225,0.1-0.225,0.225c0,0.124,0.101,0.225,0.225,0.225h0.225v4.119c-1.938-1.907-3.258-4.439-3.633-7.266h3.184v1.566
            c0,0.124,0.104,0.232,0.229,0.232h0.221V23.381z M7.224,20.684h2.698v1.349H7.224V20.684z M9.472,29.709
            c-0.64-0.393-1.241-0.841-1.798-1.339v-0.005v-4.534h1.798V29.709z M9.472,23.381H7.674v-0.899h1.798V23.381z M11.271,26.304v1.124
            h-0.225c-0.124,0-0.225,0.1-0.225,0.225c0,0.124,0.101,0.225,0.225,0.225h0.225v2.742c-0.464-0.189-0.915-0.406-1.349-0.649v-6.14
            h0.225c0.124,0,0.225-0.101,0.225-0.225c0-0.125-0.101-0.225-0.225-0.225H9.922v-0.899h0.232c0.124,0,0.217-0.108,0.217-0.232
            v-1.566h1.35v1.566c0,0.124,0.109,0.232,0.234,0.232h0.215v0.899h-0.225c-0.125,0-0.225,0.1-0.225,0.225
            c0,0.124,0.1,0.225,0.225,0.225h0.225v2.248h-0.675C11.371,26.079,11.271,26.179,11.271,26.304z M14.868,31.5
            c-0.614-0.055-1.214-0.157-1.799-0.299v-1.25c0-0.495,0.403-0.899,0.899-0.899c0.495,0,0.899,0.404,0.899,0.899V31.5z
             M18.914,31.205c-0.585,0.14-1.185,0.242-1.798,0.296V29.95c0-0.495,0.403-0.899,0.899-0.899c0.495,0,0.898,0.404,0.898,0.899
            V31.205z M20.264,30.802c-0.295,0.107-0.596,0.201-0.899,0.286V29.95c0-0.744-0.605-1.349-1.349-1.349
            c-0.744,0-1.35,0.605-1.35,1.349v1.581c-0.221,0.011-0.442,0.019-0.667,0.019c-0.229,0-0.455-0.008-0.682-0.02v-1.58
            c0-0.744-0.605-1.349-1.349-1.349c-0.744,0-1.35,0.605-1.35,1.349v1.135c-0.304-0.086-0.604-0.181-0.898-0.288v-2.919h8.543V30.802
            z M20.264,27.428h-8.543v-0.899h8.543V27.428z M22.062,23.381h-0.225c-0.124,0-0.225,0.1-0.225,0.225
            c0,0.124,0.101,0.225,0.225,0.225h0.225v6.149c-0.435,0.242-0.885,0.458-1.349,0.646v-2.749h0.225c0.125,0,0.226-0.101,0.226-0.225
            c0-0.125-0.101-0.225-0.226-0.225h-0.225v-1.124c0-0.125-0.101-0.225-0.225-0.225h-0.675v-2.248h0.226
            c0.124,0,0.225-0.101,0.225-0.225c0-0.125-0.101-0.225-0.225-0.225h-0.226v-0.899h0.243c0.125,0,0.207-0.108,0.207-0.232v-1.566
            h1.349v1.566c0,0.124,0.121,0.232,0.245,0.232h0.204V23.381z M22.062,20.684h2.698v1.349h-2.698V20.684z M24.311,28.384
            c-0.558,0.496-1.159,0.945-1.799,1.335v-5.888h1.799V28.384z M24.311,23.381h-1.799v-0.899h1.799V23.381z M24.76,27.965v-4.134
            h0.225c0.125,0,0.225-0.101,0.225-0.225c0-0.125-0.1-0.225-0.225-0.225H24.76v-0.899h0.249c0.124,0,0.2-0.108,0.2-0.232v-1.566
            h3.199C28.032,23.518,26.706,26.056,24.76,27.965z M25.313,20.234l0.351-1.056c0.023-0.068,0.012-0.143-0.031-0.202
            c-0.042-0.058-0.109-0.091-0.183-0.091h-0.379l-4.501-3.147h3.29v0.669c0,0.124,0.124,0.23,0.248,0.23h1.801
            c0.124,0,0.199-0.106,0.199-0.23v-0.669h1.972c0.286,1.05,0.44,2.153,0.44,3.292c0,0.406-0.021,0.807-0.059,1.204H25.313z"></path>
    </g>
    </g>
</svg>
