<?xml version="1.0" encoding="UTF-8" standalone="no"?>
<!-- Created with Inkscape (http://www.inkscape.org/) -->

<svg
    xmlns:dc="http://purl.org/dc/elements/1.1/"
    xmlns:cc="http://creativecommons.org/ns#"
    xmlns:rdf="http://www.w3.org/1999/02/22-rdf-syntax-ns#"
    xmlns:svg="http://www.w3.org/2000/svg"
    xmlns="http://www.w3.org/2000/svg"
    xmlns:sodipodi="http://sodipodi.sourceforge.net/DTD/sodipodi-0.dtd"
    xmlns:inkscape="http://www.inkscape.org/namespaces/inkscape"
    width="124"
    height="4"
    id="svg2"
    viewBox="0 0 32 32"
    version="1.1"
    inkscape:version="0.48.4 r9939"
    sodipodi:docname="dashed-line.svg">
  
    <g id="1ad9f0d8e73fe0870b62d033bd1690bd">
    <g id="Dublin_1_">
        <path d="M15.992,16.187c-0.124,0-0.225-0.101-0.225-0.225v-0.899c0-0.125,0.101-0.225,0.225-0.225
            s0.225,0.101,0.225,0.225v0.899C16.217,16.086,16.116,16.187,15.992,16.187z"></path>
        <path d="M14.643,16.187c-0.124,0-0.225-0.101-0.225-0.225v-0.899c0-0.125,0.101-0.225,0.225-0.225
            c0.125,0,0.225,0.101,0.225,0.225v0.899C14.868,16.086,14.768,16.187,14.643,16.187z"></path>
        <path d="M13.294,16.187c-0.124,0-0.225-0.101-0.225-0.225v-0.899c0-0.125,0.101-0.225,0.225-0.225
            s0.225,0.101,0.225,0.225v0.899C13.519,16.086,13.418,16.187,13.294,16.187z"></path>
        <path d="M18.689,16.187c-0.123,0-0.225-0.101-0.225-0.225v-0.899c0-0.125,0.102-0.225,0.225-0.225
            c0.125,0,0.226,0.101,0.226,0.225v0.899C18.915,16.086,18.814,16.187,18.689,16.187z"></path>
        <path d="M17.341,16.187c-0.124,0-0.225-0.101-0.225-0.225v-0.899c0-0.125,0.101-0.225,0.225-0.225
            s0.225,0.101,0.225,0.225v0.899C17.565,16.086,17.465,16.187,17.341,16.187z"></path>
        <g>
            <path d="M25.859,10.619l-0.177-8.821h0.201c0.125,0,0.226-0.101,0.226-0.225c0-0.125-0.101-0.225-0.226-0.225
                h-0.21L25.651,0.22C25.648,0.098,25.549,0,25.427,0h-2.248c-0.122,0-0.223,0.098-0.225,0.22l-0.023,1.129h-0.194
                c-0.123,0-0.225,0.1-0.225,0.225c0,0.124,0.102,0.225,0.225,0.225h0.186l-0.124,6.196C20.819,6.771,18.492,6.06,16,6.06
                c-2.505,0-4.844,0.718-6.829,1.954L9.046,1.798h0.201c0.124,0,0.225-0.101,0.225-0.225c0-0.125-0.101-0.225-0.225-0.225h-0.21
                L9.015,0.22C9.012,0.098,8.913,0,8.79,0H6.542C6.419,0,6.319,0.098,6.317,0.22L6.294,1.349H6.1c-0.124,0-0.225,0.1-0.225,0.225
                c0,0.124,0.101,0.225,0.225,0.225h0.185l-0.177,8.859C4.191,12.918,3.03,15.839,3.03,19.03C3.03,26.182,8.848,32,16,32
                c7.152,0,12.97-5.818,12.97-12.97C28.97,15.822,27.796,12.885,25.859,10.619z M28.521,19.03c0,1.197-0.172,2.354-0.487,3.452
                h-1.937l-0.223-11.139C27.531,13.466,28.521,16.134,28.521,19.03z M23.398,0.45h1.808l0.019,0.899h-1.844L23.398,0.45z
                 M23.372,1.798h1.861l0.027,1.349h-1.915L23.372,1.798z M23.336,3.597h1.934l0.027,1.349H23.31L23.336,3.597z M23.3,5.396h2.006
                l0.027,1.349h-2.06L23.3,5.396z M23.264,7.194h2.078l0.027,1.349h-2.132L23.264,7.194z M23.229,8.993h2.149l0.026,1.349h-2.203
                L23.229,8.993z M23.192,10.792h2.221l0.026,1.349h-2.274L23.192,10.792z M23.156,12.59h2.293l0.026,1.349h-2.347L23.156,12.59z
                 M23.12,14.389h2.365l0.026,1.349h-2.419L23.12,14.389z M23.084,16.187h2.438l0.026,1.349h-2.49L23.084,16.187z M23.049,17.986
                h2.509l0.026,1.349h-2.562L23.049,17.986z M23.013,19.784h2.58l0.027,1.349h-2.635L23.013,19.784z M25.629,21.583l0.019,0.899
                h-2.689l0.019-0.899H25.629z M16,6.509c2.5,0,4.83,0.739,6.788,2.007l-0.108,5.423h-1.067v-0.675c0-0.125-0.101-0.225-0.225-0.225
                h-2.473v-2.923c0-0.125-0.101-0.225-0.226-0.225h-5.395c-0.124,0-0.225,0.1-0.225,0.225v2.923h-2.473
                c-0.124,0-0.225,0.1-0.225,0.225v0.675H9.29L9.182,8.536C11.145,7.256,13.487,6.509,16,6.509z M22.67,14.389l-0.161,8.093h-0.896
                v-8.093H22.67z M18.689,17.536h-5.395c-0.124,0-0.225,0.1-0.225,0.225v4.721h-2.248v-8.993h10.342v8.993h-2.248v-4.721
                C18.915,17.636,18.814,17.536,18.689,17.536z M18.465,17.986v4.496h-0.899v-4.496H18.465z M17.116,17.986v4.496h-0.899v-4.496
                H17.116z M15.767,17.986v4.496h-0.899v-4.496H15.767z M14.418,17.986v4.496h-0.899v-4.496H14.418z M14.643,11.241
                c0.125,0,0.225-0.101,0.225-0.225v-0.674h2.248v0.674c0,0.124,0.101,0.225,0.225,0.225s0.225-0.101,0.225-0.225v-0.674h0.899
                v2.698h-0.899v-0.674c0-0.125-0.101-0.225-0.225-0.225s-0.225,0.1-0.225,0.225v0.674h-0.899v-0.674
                c0-0.125-0.101-0.225-0.225-0.225s-0.225,0.1-0.225,0.225v0.674h-0.899v-0.674c0-0.125-0.101-0.225-0.225-0.225
                c-0.124,0-0.225,0.1-0.225,0.225v0.674h-0.899v-2.698h0.899v0.674C14.418,11.14,14.52,11.241,14.643,11.241z M10.372,14.389v8.093
                H9.46l-0.162-8.093H10.372z M27.896,22.932c-0.43,1.306-1.066,2.52-1.875,3.597h-2.16v-1.124c0-0.125-0.101-0.225-0.225-0.225
                h-0.674v-1.124c0-0.125-0.101-0.225-0.226-0.225H9.248c-0.124,0-0.225,0.1-0.225,0.225v1.124H8.348
                c-0.124,0-0.225,0.1-0.225,0.225v1.124H5.979c-0.809-1.078-1.445-2.291-1.875-3.597H27.896z M22.062,29.98v-4.351h1.349v3.484
                C22.981,29.43,22.531,29.719,22.062,29.98z M20.264,30.802c-0.438,0.159-0.89,0.292-1.349,0.402v-4.226h1.349V30.8V30.802z
                 M20.488,26.529h-1.799c-0.123,0-0.225,0.1-0.225,0.225v4.552c-0.296,0.06-0.596,0.106-0.899,0.144v-4.696
                c0-0.125-0.101-0.225-0.225-0.225h-2.698c-0.124,0-0.225,0.1-0.225,0.225v4.694c-0.303-0.039-0.604-0.085-0.899-0.145v-4.549
                c0-0.125-0.101-0.225-0.225-0.225h-1.799c-0.124,0-0.225,0.1-0.225,0.225v3.867c-0.306-0.125-0.606-0.262-0.899-0.411v-4.805
                c0-0.125-0.101-0.225-0.225-0.225H9.472v-0.899h13.04v0.899h-0.674c-0.124,0-0.226,0.1-0.226,0.225v4.812
                c-0.293,0.147-0.593,0.285-0.899,0.409v-3.873C20.713,26.629,20.612,26.529,20.488,26.529z M11.721,30.797v-0.008v-3.811h1.349
                v4.222C12.61,31.09,12.159,30.957,11.721,30.797z M8.573,29.103v-3.474h1.349v4.342C9.453,29.709,9.002,29.42,8.573,29.103z
                 M6.762,0.45h1.807l0.019,0.899H6.744L6.762,0.45z M6.735,1.798h1.862l0.027,1.349H6.708L6.735,1.798z M6.699,3.597h1.934
                L8.66,4.946H6.672L6.699,3.597z M6.663,5.396h2.006l0.027,1.349H6.637L6.663,5.396z M6.627,7.194h2.078l0.027,1.349H6.601
                L6.627,7.194z M6.591,8.993h2.15l0.027,1.349H6.564L6.591,8.993z M6.555,10.792h2.222l0.027,1.349H6.529L6.555,10.792z
                 M6.52,12.59h2.293l0.026,1.349H6.493L6.52,12.59z M6.483,14.389h2.365l0.026,1.349H6.457L6.483,14.389z M6.448,16.187h2.437
                l0.026,1.349H6.42L6.448,16.187z M6.412,17.986h2.509l0.026,1.349H6.385L6.412,17.986z M6.376,19.784h2.581l0.026,1.349H6.349
                L6.376,19.784z M8.992,21.583l0.018,0.899H6.321l0.019-0.899H8.992z M6.094,11.385L5.872,22.482H3.967
                c-0.315-1.098-0.487-2.255-0.487-3.452C3.479,16.153,4.457,13.501,6.094,11.385z M6.333,26.979h1.791v1.775
                C7.469,28.223,6.869,27.628,6.333,26.979z M14.868,31.497v-4.518h2.248v4.52C16.748,31.531,16.377,31.55,16,31.55
                C15.618,31.55,15.241,31.531,14.868,31.497z M23.86,28.766v-1.787h1.807C25.127,27.634,24.521,28.231,23.86,28.766z"></path>
            <path d="M20.488,25.18h-8.993c-0.124,0-0.225,0.1-0.225,0.225c0,0.124,0.101,0.225,0.225,0.225h8.993
                c0.124,0,0.225-0.101,0.225-0.225C20.713,25.28,20.612,25.18,20.488,25.18z"></path>
        </g>
    </g>
    </g>
</svg>
