<?xml version="1.0" encoding="UTF-8" standalone="no"?>
<!-- Created with Inkscape (http://www.inkscape.org/) -->

<svg
    xmlns:dc="http://purl.org/dc/elements/1.1/"
    xmlns:cc="http://creativecommons.org/ns#"
    xmlns:rdf="http://www.w3.org/1999/02/22-rdf-syntax-ns#"
    xmlns:svg="http://www.w3.org/2000/svg"
    xmlns="http://www.w3.org/2000/svg"
    xmlns:sodipodi="http://sodipodi.sourceforge.net/DTD/sodipodi-0.dtd"
    xmlns:inkscape="http://www.inkscape.org/namespaces/inkscape"
    width="124"
    height="4"
    id="svg2"
    viewBox="0 0 32 32"
    version="1.1"
    inkscape:version="0.48.4 r9939"
    sodipodi:docname="dashed-line.svg">
  
    <g id="0b5d483913ccfe83d7c515cccfebb23b">
    <g id="London_1_">
        <path d="M20.039,18.885h-0.636c-0.026-0.47-0.148-0.915-0.347-1.315l0.546-0.315c0.106-0.062,0.144-0.2,0.081-0.307
            c-0.062-0.108-0.199-0.145-0.307-0.083l-0.543,0.313c-0.251-0.373-0.572-0.694-0.944-0.944l0.313-0.543
            c0.062-0.107,0.025-0.245-0.082-0.307c-0.108-0.062-0.245-0.025-0.308,0.082l-0.314,0.545c-0.392-0.193-0.824-0.314-1.281-0.345
            v-0.604c0-0.125-0.101-0.225-0.225-0.225c-0.124,0-0.225,0.1-0.225,0.225v0.604c-0.463,0.029-0.901,0.15-1.296,0.346l-0.315-0.545
            c-0.062-0.107-0.2-0.145-0.308-0.083c-0.107,0.062-0.144,0.2-0.083,0.308l0.314,0.543c-0.374,0.25-0.695,0.571-0.945,0.944
            l-0.543-0.313c-0.108-0.062-0.246-0.025-0.307,0.083c-0.062,0.107-0.026,0.245,0.083,0.307l0.545,0.315
            c-0.199,0.4-0.32,0.845-0.347,1.315h-0.621c-0.124,0-0.225,0.1-0.225,0.225c0,0.124,0.101,0.225,0.225,0.225h0.624
            c0.032,0.45,0.153,0.877,0.344,1.263l-0.545,0.315c-0.108,0.062-0.145,0.2-0.083,0.308c0.041,0.072,0.117,0.112,0.195,0.112
            c0.038,0,0.076-0.01,0.112-0.031l0.543-0.313c0.25,0.374,0.571,0.695,0.944,0.945l-0.313,0.543
            c-0.062,0.108-0.024,0.245,0.083,0.307c0.035,0.021,0.074,0.03,0.112,0.03c0.078,0,0.153-0.04,0.195-0.113l0.314-0.545
            c0.396,0.196,0.833,0.317,1.297,0.346v0.655c0,0.124,0.101,0.225,0.225,0.225c0.124,0,0.225-0.101,0.225-0.225V22.5
            c0.458-0.031,0.89-0.151,1.281-0.345l0.314,0.546c0.042,0.072,0.117,0.112,0.194,0.112c0.039,0,0.078-0.009,0.113-0.03
            c0.106-0.062,0.144-0.2,0.082-0.307l-0.313-0.544c0.372-0.25,0.693-0.571,0.944-0.945l0.543,0.313
            c0.035,0.021,0.074,0.031,0.113,0.031c0.077,0,0.152-0.041,0.194-0.112c0.062-0.108,0.024-0.245-0.082-0.308l-0.546-0.315
            c0.19-0.386,0.312-0.812,0.345-1.263h0.638c0.124,0,0.226-0.101,0.226-0.225C20.264,18.985,20.163,18.885,20.039,18.885z
             M15.984,22.063c-1.642,0-2.979-1.337-2.979-2.979c0-1.643,1.337-2.979,2.979-2.979s2.979,1.336,2.979,2.979
            C18.963,20.727,17.626,22.063,15.984,22.063z"></path>
        <path d="M17.341,18.885h-1.124v-1.574c0-0.125-0.101-0.225-0.225-0.225c-0.124,0-0.225,0.1-0.225,0.225v1.799
            c0,0.124,0.101,0.225,0.225,0.225h1.349c0.124,0,0.225-0.101,0.225-0.225C17.566,18.985,17.465,18.885,17.341,18.885z"></path>
        <path d="M15.985,10.317c0.059,0,0.115-0.025,0.158-0.067c0.042-0.043,0.066-0.099,0.066-0.158
            c0-0.058-0.024-0.117-0.066-0.159c-0.083-0.083-0.235-0.083-0.317,0c-0.043,0.042-0.066,0.099-0.066,0.159
            c0,0.059,0.023,0.117,0.066,0.16C15.869,10.292,15.925,10.317,15.985,10.317z"></path>
        <path d="M14.185,10.317c0.061,0,0.117-0.025,0.16-0.067c0.042-0.041,0.065-0.099,0.065-0.158
            c0-0.061-0.022-0.117-0.065-0.159c-0.083-0.083-0.234-0.083-0.317,0c-0.043,0.041-0.068,0.099-0.068,0.159
            c0,0.059,0.025,0.117,0.068,0.16C14.07,10.292,14.126,10.317,14.185,10.317z"></path>
        <path d="M15.084,9.417c0.061,0,0.117-0.024,0.16-0.067c0.042-0.041,0.065-0.1,0.065-0.158
            c0-0.061-0.023-0.119-0.065-0.16c-0.082-0.083-0.236-0.083-0.317,0c-0.043,0.041-0.068,0.099-0.068,0.16
            c0,0.058,0.025,0.117,0.068,0.158C14.969,9.393,15.025,9.417,15.084,9.417z"></path>
        <path d="M16.883,9.417c0.061,0,0.117-0.024,0.16-0.067c0.042-0.041,0.065-0.1,0.065-0.158
            c0-0.061-0.023-0.119-0.065-0.16c-0.082-0.083-0.236-0.083-0.317,0c-0.043,0.041-0.067,0.099-0.067,0.16
            c0,0.058,0.024,0.117,0.067,0.158C16.766,9.393,16.824,9.417,16.883,9.417z"></path>
        <path d="M17.784,10.317c0.059,0,0.115-0.025,0.158-0.067c0.042-0.041,0.066-0.099,0.066-0.158
            c0-0.061-0.024-0.119-0.066-0.159c-0.083-0.083-0.236-0.083-0.317,0c-0.043,0.041-0.065,0.099-0.065,0.159
            c0,0.059,0.022,0.117,0.065,0.158C17.666,10.292,17.723,10.317,17.784,10.317z"></path>
        <path d="M18.915,6.395V5.621c0-0.125-0.101-0.225-0.225-0.225h-0.003h-0.002h-0.003
            c-1.065,0-2.085-3.198-2.477-5.214C16.185,0.076,16.092,0,15.984,0c-0.107,0-0.2,0.076-0.22,0.182
            c-0.393,2.016-1.41,5.214-2.476,5.214c-0.124,0-0.219,0.101-0.219,0.225v0.778C7.325,7.731,3.03,12.886,3.03,19.03
            C3.03,26.182,8.848,32,16,32s12.97-5.818,12.97-12.97C28.97,12.88,24.667,7.721,18.915,6.395z M15.984,1.254
            c0.308,1.238,0.914,3.25,1.792,4.141h-1.559V4.721c0-0.125-0.101-0.225-0.225-0.225c-0.124,0-0.225,0.101-0.225,0.225v0.674h-1.575
            C15.07,4.504,15.678,2.492,15.984,1.254z M13.52,5.845h4.946v1.799h-0.899V6.97c0-0.125-0.101-0.225-0.225-0.225
            s-0.225,0.1-0.225,0.225v0.674h-0.899V6.97c0-0.125-0.101-0.225-0.225-0.225c-0.124,0-0.225,0.1-0.225,0.225v0.674h-0.899V6.97
            c0-0.125-0.101-0.225-0.225-0.225c-0.124,0-0.225,0.1-0.225,0.225v0.674H13.52V5.845z M13.506,8.094h4.972
            c0.106,1.044,0.849,2.512,1.193,3.147h-7.358C12.658,10.605,13.4,9.138,13.506,8.094z M3.479,19.03
            c0-0.168,0.004-0.335,0.011-0.502c0.034-0.003,0.068-0.004,0.101-0.004c0.718,0,1.336,0.491,1.501,1.194
            c0.018,0.074,0.071,0.134,0.143,0.16s0.151,0.013,0.212-0.033c0.213-0.162,0.465-0.249,0.729-0.249
            c0.667,0,1.208,0.545,1.208,1.215c0,0.013-0.002,0.037-0.003,0.051c-0.004,0.015-0.005,0.031-0.005,0.046
            c0,0.124,0.101,0.225,0.225,0.225h2.763c0.497,0,0.899,0.403,0.899,0.899c0,0.496-0.403,0.899-0.899,0.899h-6.26
            C3.7,21.703,3.479,20.392,3.479,19.03z M10.821,23.3c0.519-0.188,0.892-0.684,0.892-1.267c0-0.583-0.373-1.08-0.892-1.268v-6.826
            h10.342v10.342H10.821V23.3z M19.814,13.489h-0.899v-0.674c0-0.125-0.101-0.225-0.225-0.225s-0.225,0.1-0.225,0.225v0.674h-0.899
            v-0.674c0-0.125-0.101-0.225-0.225-0.225s-0.225,0.1-0.225,0.225v0.674h-0.899v-0.674c0-0.125-0.101-0.225-0.225-0.225
            c-0.124,0-0.225,0.1-0.225,0.225v0.674h-0.899v-0.674c0-0.125-0.101-0.225-0.225-0.225c-0.124,0-0.225,0.1-0.225,0.225v0.674H13.52
            v-0.674c0-0.125-0.101-0.225-0.225-0.225c-0.124,0-0.225,0.1-0.225,0.225v0.674H12.17v-1.798h7.644V13.489z M13.07,6.861v0.994
            c0,0.749-0.513,1.915-0.899,2.686V9.218c0-0.125-0.101-0.225-0.225-0.225c-0.124,0-0.225,0.1-0.225,0.225v4.271h-1.124
            c-0.124,0-0.225,0.1-0.225,0.225v6.97c-0.003,0-0.005,0-0.008,0H7.831c-0.066-0.859-0.783-1.537-1.654-1.537
            c-0.26,0-0.51,0.06-0.739,0.175c-0.301-0.748-1.022-1.249-1.847-1.249c-0.024,0-0.049,0.002-0.074,0.004
            C3.931,12.608,7.875,8.113,13.07,6.861z M11.721,30.797c-0.189-0.069-0.377-0.143-0.563-0.221h0.563V30.797z M11.721,28.777h-0.674
            c-0.124,0-0.225,0.1-0.225,0.225c0,0.124,0.101,0.225,0.225,0.225h0.674v0.899h-0.674c-0.124,0-0.225,0.1-0.225,0.225
            c0,0.029,0.006,0.056,0.017,0.082c-3.025-1.375-5.411-3.919-6.577-7.051h6.102c0.003,0,0.005-0.001,0.008-0.001v1.125
            c0,0.124,0.101,0.225,0.225,0.225h0.225v1.124c0,0.124,0.101,0.225,0.225,0.225h0.674V28.777z M13.07,31.201
            c-0.304-0.073-0.604-0.156-0.899-0.251v-0.004v-0.37h0.899V31.201z M13.07,30.126H12.17v-0.899h0.899V30.126z M13.07,28.777H12.17
            v-2.698h0.899V28.777z M14.418,31.447c-0.303-0.038-0.603-0.085-0.899-0.145v-0.727h0.899V31.447z M14.418,30.126H13.52v-0.899
            h0.899V30.126z M14.418,28.777H13.52v-2.698h0.899V28.777z M15.768,31.544c-0.302-0.005-0.603-0.021-0.899-0.048v-0.921h0.899
            V31.544z M15.768,30.126h-0.899v-0.899h0.899V30.126z M15.768,28.777h-0.899v-2.698h0.899V28.777z M11.271,25.629V24.73h9.442
            v0.899H11.271z M17.117,31.498c-0.297,0.026-0.598,0.042-0.899,0.047v-0.969h0.899V31.498z M17.117,30.126h-0.899v-0.899h0.899
            V30.126z M17.117,28.777h-0.899v-2.698h0.899V28.777z M18.465,31.305c-0.296,0.06-0.597,0.106-0.899,0.144v-0.874h0.899V31.305z
             M18.465,30.126h-0.899v-0.899h0.899V30.126z M18.465,28.777h-0.899v-2.698h0.899V28.777z M19.814,30.955
            c-0.295,0.094-0.595,0.177-0.899,0.25v-0.629h0.899V30.955z M19.814,30.126h-0.899v-0.899h0.899V30.126z M19.814,28.777h-0.899
            v-2.698h0.899V28.777z M20.264,30.802v-0.227h0.579C20.652,30.655,20.458,30.731,20.264,30.802z M21.144,30.441
            c0.012-0.028,0.02-0.058,0.02-0.09c0-0.125-0.102-0.225-0.226-0.225h-0.674v-0.899h0.674c0.124,0,0.226-0.101,0.226-0.225
            c0-0.125-0.102-0.225-0.226-0.225h-0.674v-2.698h0.674c0.124,0,0.226-0.101,0.226-0.225V24.73h0.225
            c0.124,0,0.225-0.101,0.225-0.225v-4.271h4.488c0.744,0,1.349-0.605,1.349-1.349c0-0.744-0.604-1.349-1.349-1.349h-1.216
            c0.06-0.191,0.092-0.399,0.092-0.604c0-1.104-0.895-2.001-1.995-2.001c-0.528,0-1.01,0.209-1.369,0.552v-1.77
            c0-0.125-0.101-0.225-0.225-0.225h-1.124V9.218c0-0.125-0.102-0.225-0.226-0.225c-0.123,0-0.225,0.1-0.225,0.225v1.323
            c-0.386-0.771-0.899-1.937-0.899-2.686V6.858c5.502,1.317,9.606,6.272,9.606,12.172C28.521,24.101,25.489,28.474,21.144,30.441z
             M24.35,17.873c0.04,0.069,0.115,0.113,0.195,0.113h1.556c0.496,0,0.899,0.403,0.899,0.899c0,0.495-0.403,0.899-0.899,0.899h-4.488
            v-3.56c0.258-0.509,0.777-0.843,1.369-0.843c0.853,0,1.546,0.696,1.546,1.552c0,0.253-0.067,0.521-0.179,0.717
            C24.31,17.719,24.311,17.804,24.35,17.873z"></path>
    </g>
    </g>
</svg>
