<?xml version="1.0" encoding="UTF-8" standalone="no"?>
<!-- Created with Inkscape (http://www.inkscape.org/) -->

<svg
    xmlns:dc="http://purl.org/dc/elements/1.1/"
    xmlns:cc="http://creativecommons.org/ns#"
    xmlns:rdf="http://www.w3.org/1999/02/22-rdf-syntax-ns#"
    xmlns:svg="http://www.w3.org/2000/svg"
    xmlns="http://www.w3.org/2000/svg"
    xmlns:sodipodi="http://sodipodi.sourceforge.net/DTD/sodipodi-0.dtd"
    xmlns:inkscape="http://www.inkscape.org/namespaces/inkscape"
    width="124"
    height="4"
    id="svg2"
    viewBox="0 0 32 32"
    version="1.1"
    inkscape:version="0.48.4 r9939"
    sodipodi:docname="dashed-line.svg">
  
    <g id="d9c7406559b338d9844f651f2cc7947b">
    <g id="New_York_1_">
        <path d="M11.046,28.328H9.248c-0.124,0-0.225,0.1-0.225,0.225c0,0.124,0.101,0.225,0.225,0.225h1.799
            c0.124,0,0.225-0.101,0.225-0.225C11.271,28.428,11.17,28.328,11.046,28.328z"></path>
        <path d="M15.542,12.59h0.899c0.124,0,0.225-0.101,0.225-0.225c0-0.125-0.101-0.225-0.225-0.225h-0.899
            c-0.124,0-0.225,0.1-0.225,0.225C15.318,12.489,15.418,12.59,15.542,12.59z"></path>
        <path d="M16.892,13.939h-1.798c-0.125,0-0.225,0.1-0.225,0.225c0,0.124,0.101,0.225,0.225,0.225h1.798
            c0.124,0,0.225-0.101,0.225-0.225C17.116,14.039,17.016,13.939,16.892,13.939z"></path>
        <path d="M16.892,15.737h-1.798c-0.125,0-0.225,0.1-0.225,0.225c0,0.124,0.101,0.225,0.225,0.225h1.798
            c0.124,0,0.225-0.101,0.225-0.225C17.116,15.837,17.016,15.737,16.892,15.737z"></path>
        <path d="M16.892,17.536h-1.798c-0.125,0-0.225,0.1-0.225,0.225c0,0.124,0.101,0.225,0.225,0.225h1.798
            c0.124,0,0.225-0.101,0.225-0.225C17.116,17.636,17.016,17.536,16.892,17.536z"></path>
        <path d="M16.892,19.335h-1.798c-0.125,0-0.225,0.1-0.225,0.225c0,0.124,0.101,0.225,0.225,0.225h1.798
            c0.124,0,0.225-0.101,0.225-0.225C17.116,19.435,17.016,19.335,16.892,19.335z"></path>
        <path d="M16.892,21.133h-1.798c-0.125,0-0.225,0.1-0.225,0.225c0,0.124,0.101,0.225,0.225,0.225h1.798
            c0.124,0,0.225-0.101,0.225-0.225C17.116,21.233,17.016,21.133,16.892,21.133z"></path>
        <path d="M16.892,22.932h-1.798c-0.125,0-0.225,0.1-0.225,0.225c0,0.124,0.101,0.225,0.225,0.225h1.798
            c0.124,0,0.225-0.101,0.225-0.225C17.116,23.032,17.016,22.932,16.892,22.932z"></path>
        <path d="M16.892,24.73h-1.798c-0.125,0-0.225,0.1-0.225,0.225c0,0.124,0.101,0.225,0.225,0.225h1.798
            c0.124,0,0.225-0.101,0.225-0.225C17.116,24.831,17.016,24.73,16.892,24.73z"></path>
        <path d="M16.892,26.529h-1.798c-0.125,0-0.225,0.1-0.225,0.225c0,0.124,0.101,0.225,0.225,0.225h1.798
            c0.124,0,0.225-0.101,0.225-0.225C17.116,26.629,17.016,26.529,16.892,26.529z"></path>
        <path d="M16.892,28.328h-1.798c-0.125,0-0.225,0.1-0.225,0.225c0,0.124,0.101,0.225,0.225,0.225h1.798
            c0.124,0,0.225-0.101,0.225-0.225C17.116,28.428,17.016,28.328,16.892,28.328z"></path>
        <path d="M16.892,30.126h-1.798c-0.125,0-0.225,0.1-0.225,0.225c0,0.124,0.101,0.225,0.225,0.225h1.798
            c0.124,0,0.225-0.101,0.225-0.225C17.116,30.226,17.016,30.126,16.892,30.126z"></path>
        <path d="M13.294,22.932h-0.45c-0.124,0-0.225,0.1-0.225,0.225c0,0.124,0.101,0.225,0.225,0.225h0.45
            c0.124,0,0.225-0.101,0.225-0.225C13.52,23.032,13.418,22.932,13.294,22.932z"></path>
        <path d="M13.294,24.73h-0.45c-0.124,0-0.225,0.1-0.225,0.225c0,0.124,0.101,0.225,0.225,0.225h0.45
            c0.124,0,0.225-0.101,0.225-0.225C13.52,24.831,13.418,24.73,13.294,24.73z"></path>
        <path d="M9.69,25.155c0.059,0,0.117-0.024,0.158-0.067c0.042-0.041,0.067-0.1,0.067-0.157
            c0-0.061-0.024-0.12-0.067-0.16c-0.083-0.083-0.234-0.083-0.317,0c-0.043,0.041-0.065,0.1-0.065,0.16
            c0,0.058,0.022,0.117,0.065,0.159C9.574,25.131,9.63,25.155,9.69,25.155z"></path>
        <path d="M22.121,24.771c-0.043,0.041-0.067,0.1-0.067,0.16c0,0.058,0.024,0.117,0.067,0.157
            c0.041,0.043,0.099,0.067,0.16,0.067c0.058,0,0.117-0.024,0.158-0.067c0.042-0.041,0.067-0.1,0.067-0.157
            c0-0.061-0.024-0.12-0.067-0.16C22.354,24.688,22.204,24.688,22.121,24.771z"></path>
        <path d="M13.294,26.529h-0.45c-0.124,0-0.225,0.1-0.225,0.225c0,0.124,0.101,0.225,0.225,0.225h0.45
            c0.124,0,0.225-0.101,0.225-0.225C13.52,26.629,13.418,26.529,13.294,26.529z"></path>
        <path d="M13.294,28.328h-0.45c-0.124,0-0.225,0.1-0.225,0.225c0,0.124,0.101,0.225,0.225,0.225h0.45
            c0.124,0,0.225-0.101,0.225-0.225C13.52,28.428,13.418,28.328,13.294,28.328z"></path>
        <path d="M13.294,30.126h-0.45c-0.124,0-0.225,0.1-0.225,0.225c0,0.124,0.101,0.225,0.225,0.225h0.45
            c0.124,0,0.225-0.101,0.225-0.225C13.52,30.226,13.418,30.126,13.294,30.126z"></path>
        <path d="M19.14,22.932h-0.45c-0.124,0-0.225,0.1-0.225,0.225c0,0.124,0.101,0.225,0.225,0.225h0.45
            c0.124,0,0.225-0.101,0.225-0.225C19.365,23.032,19.264,22.932,19.14,22.932z"></path>
        <path d="M19.14,24.73h-0.45c-0.124,0-0.225,0.1-0.225,0.225c0,0.124,0.101,0.225,0.225,0.225h0.45
            c0.124,0,0.225-0.101,0.225-0.225C19.365,24.831,19.264,24.73,19.14,24.73z"></path>
        <path d="M19.14,26.529h-0.45c-0.124,0-0.225,0.1-0.225,0.225c0,0.124,0.101,0.225,0.225,0.225h0.45
            c0.124,0,0.225-0.101,0.225-0.225C19.365,26.629,19.264,26.529,19.14,26.529z"></path>
        <path d="M19.14,28.328h-0.45c-0.124,0-0.225,0.1-0.225,0.225c0,0.124,0.101,0.225,0.225,0.225h0.45
            c0.124,0,0.225-0.101,0.225-0.225C19.365,28.428,19.264,28.328,19.14,28.328z"></path>
        <path d="M19.14,30.126h-0.45c-0.124,0-0.225,0.1-0.225,0.225c0,0.124,0.101,0.225,0.225,0.225h0.45
            c0.124,0,0.225-0.101,0.225-0.225C19.365,30.226,19.264,30.126,19.14,30.126z"></path>
        <path d="M20.938,28.777h1.798c0.124,0,0.225-0.101,0.225-0.225c0-0.125-0.101-0.225-0.225-0.225h-1.798
            c-0.125,0-0.225,0.1-0.225,0.225C20.713,28.676,20.814,28.777,20.938,28.777z"></path>
        <path d="M17.874,6.199c-0.152-0.383-0.419-0.709-0.757-0.937V4.246c0-0.543-0.387-0.997-0.899-1.101v-2.92
            C16.217,0.101,16.116,0,15.992,0s-0.225,0.101-0.225,0.225v2.92c-0.513,0.104-0.899,0.558-0.899,1.101v1.017
            c-0.339,0.228-0.606,0.555-0.758,0.939C7.852,7.12,3.03,12.521,3.03,19.03C3.03,26.182,8.848,32,16,32s12.97-5.818,12.97-12.97
            C28.97,12.515,24.14,7.111,17.874,6.199z M23.553,15.42c-0.004-0.034-0.008-0.118-0.008-0.163c0-0.586,0.47-1.094,1.06-1.094
            c0.001,0,0.002,0,0.004,0c0.02,0,0.039,0.037,0.059,0.038c0.063,0.003,0.125,0.012,0.17-0.032c0.046-0.044,0.071-0.104,0.068-0.168
            l-0.002-0.048c-0.001-0.011-0.002-0.022-0.002-0.034c0-0.897,0.482-1.747,1.224-2.245c1.229,1.686,2.044,3.688,2.303,5.861h-5.475
            c-0.496,0-0.899-0.403-0.899-0.899s0.403-0.899,0.899-0.899h0.387c0.125,0,0.225-0.108,0.225-0.232
            C23.566,15.479,23.561,15.444,23.553,15.42z M15.318,4.246c0-0.372,0.303-0.674,0.674-0.674c0.372,0,0.675,0.302,0.675,0.674v0.792
            c-0.212-0.075-0.438-0.118-0.675-0.118s-0.463,0.043-0.674,0.118V4.246z M14.418,6.944c0-0.868,0.706-1.574,1.574-1.574
            c0.868,0,1.574,0.706,1.574,1.574v0.239c-0.455-0.292-0.994-0.464-1.574-0.464s-1.119,0.171-1.574,0.464V6.944z M15.992,7.169
            c1.244,0,2.273,0.925,2.444,2.123c-0.693-0.486-1.535-0.774-2.444-0.774c-0.909,0-1.751,0.288-2.444,0.774
            C13.719,8.094,14.748,7.169,15.992,7.169z M15.992,10.316c-1.364,0-2.473,1.109-2.473,2.473v8.344H13
            c-0.296,0-0.575,0.057-0.83,0.159V12.79c0-2.108,1.714-3.822,3.822-3.822s3.822,1.714,3.822,3.822v8.513
            c-0.26-0.108-0.545-0.169-0.846-0.169h-0.503V12.79C18.465,11.425,17.356,10.316,15.992,10.316z M8.56,18.313
            c0.041,0.061,0.108,0.097,0.18,0.099c0.482,0.014,0.874,0.421,0.874,0.909c0,0.503-0.403,0.912-0.899,0.912H3.538
            C3.5,19.837,3.479,19.436,3.479,19.03c0-1.394,0.229-2.734,0.651-3.987c0.504-0.428,1.159-0.68,1.812-0.68
            c1.529,0,2.773,1.243,2.773,2.772c0,0.329-0.061,0.657-0.18,0.973C8.511,18.177,8.52,18.254,8.56,18.313z M3.592,20.684h5.124
            c0.744,0,1.349-0.611,1.349-1.362c0-0.628-0.437-1.167-1.021-1.317c0.081-0.285,0.122-0.577,0.122-0.869
            c0-1.777-1.445-3.222-3.222-3.222c-0.541,0-1.067,0.14-1.538,0.398c1.623-3.972,5.229-6.929,9.582-7.636
            c-0.011,0.088-0.018,0.177-0.018,0.269v0.593C13.416,8.07,13.07,8.815,13.07,9.642v0.04c-0.828,0.78-1.349,1.883-1.349,3.107v8.746
            c-0.455,0.323-0.773,0.817-0.868,1.396H8.349c-0.125,0-0.225,0.1-0.225,0.225v3.372H7.899c-0.125,0-0.225,0.1-0.225,0.225v1.617
            C5.491,26.423,3.995,23.724,3.592,20.684z M10.821,23.381v3.147H8.573v-3.147H10.821z M11.121,30.561
            c0.087-0.031,0.15-0.112,0.15-0.21c0-0.125-0.101-0.225-0.225-0.225h-0.837c-0.742-0.389-1.441-0.848-2.086-1.373v-1.775h2.923
            c0.124,0,0.225-0.101,0.225-0.225v-3.459c0-0.96,0.759-1.711,1.729-1.711h0.744c0.124,0,0.225-0.101,0.225-0.225V12.79
            c0-1.116,0.908-2.023,2.023-2.023c1.115,0,2.023,0.907,2.023,2.023v8.568c0,0.124,0.101,0.225,0.225,0.225h0.728
            c0.962,0,1.745,0.768,1.745,1.711v3.459c0,0.124,0.101,0.225,0.225,0.225h2.922v1.787c-0.641,0.519-1.334,0.975-2.07,1.36h-0.852
            c-0.125,0-0.225,0.1-0.225,0.225c0,0.102,0.068,0.185,0.161,0.212C19.375,31.198,17.728,31.55,16,31.55
            C14.27,31.55,12.621,31.197,11.121,30.561z M21.163,26.529v-3.147h2.248v3.147H21.163z M24.311,28.384v-1.63
            c0-0.125-0.101-0.225-0.225-0.225h-0.225v-3.372c0-0.125-0.101-0.225-0.225-0.225H21.13c-0.098-0.563-0.417-1.053-0.866-1.378
            V12.79c0-1.225-0.521-2.328-1.349-3.107v-0.04c0-0.827-0.347-1.572-0.899-2.104V6.944c0-0.092-0.007-0.182-0.019-0.271
            c3.174,0.511,5.953,2.218,7.857,4.644c-0.829,0.555-1.354,1.467-1.398,2.463c-0.762,0.072-1.36,0.72-1.36,1.507h-0.142
            c-0.744,0-1.349,0.605-1.349,1.349s0.605,1.349,1.349,1.349h5.522c0.028,0.344,0.045,0.692,0.045,1.044
            C28.521,22.747,26.891,26.089,24.311,28.384z"></path>
    </g>
    </g>
</svg>
