<?xml version="1.0" encoding="UTF-8" standalone="no"?>
<!-- Created with Inkscape (http://www.inkscape.org/) -->

<svg
    xmlns:dc="http://purl.org/dc/elements/1.1/"
    xmlns:cc="http://creativecommons.org/ns#"
    xmlns:rdf="http://www.w3.org/1999/02/22-rdf-syntax-ns#"
    xmlns:svg="http://www.w3.org/2000/svg"
    xmlns="http://www.w3.org/2000/svg"
    xmlns:sodipodi="http://sodipodi.sourceforge.net/DTD/sodipodi-0.dtd"
    xmlns:inkscape="http://www.inkscape.org/namespaces/inkscape"
    width="124"
    height="4"
    id="svg2"
    viewBox="0 0 32 32"
    version="1.1"
    inkscape:version="0.48.4 r9939"
    sodipodi:docname="dashed-line.svg">
  
    <g id="ebb64f15496010c39a58e7fae985a7dd">
    <path id="Paris_1_" d="M18.915,6.394V4.721c0-0.125-0.101-0.225-0.225-0.225h-1.146
        c-0.089-0.697-0.634-1.252-1.327-1.355V0.225C16.217,0.1,16.116,0,15.992,0s-0.225,0.1-0.225,0.225v2.914
        c-0.7,0.098-1.253,0.655-1.343,1.358h-1.13c-0.124,0-0.225,0.1-0.225,0.225v1.677C7.325,7.731,3.03,12.886,3.03,19.03
        C3.03,26.182,8.848,32,16,32s12.97-5.818,12.97-12.97C28.97,12.881,24.667,7.721,18.915,6.394z M23.853,14.838h-3.147
        c-0.496,0-0.899-0.403-0.899-0.899s0.403-0.899,0.899-0.899h6.284c0.677,1.237,1.151,2.601,1.378,4.047h-4.514
        c-0.496,0-0.899-0.403-0.899-0.899s0.403-0.899,0.899-0.899c0.124,0,0.225-0.101,0.225-0.225
        C24.078,14.938,23.977,14.838,23.853,14.838z M17.566,4.946h0.899v1.349h-0.899V4.946z M17.116,4.946v1.349h-0.899V4.946H17.116z
         M15.984,3.572c0.552,0,1.009,0.399,1.104,0.925H14.88C14.975,3.971,15.433,3.572,15.984,3.572z M14.868,4.946h0.899v1.349h-0.899
        V4.946z M18.097,6.745l-1,0.899h-2.226l-0.999-0.899H18.097z M19.674,31l-1.124-1.124l1.931-1.93l1.391,1.391
        c0.093,0.202,0.188,0.399,0.284,0.59C21.376,30.368,20.546,30.731,19.674,31z M9.818,29.912c0.093-0.185,0.185-0.377,0.275-0.572
        l1.395-1.395l1.931,1.93l-1.117,1.117C11.428,30.722,10.598,30.356,9.818,29.912z M11.909,24.281h0.411l1.099,1.099l-1.931,1.93
        l-0.414-0.415C11.369,26.06,11.648,25.185,11.909,24.281z M11.721,23.831h-0.899v-1.349h0.899V23.831z M16.816,24.281l1.099,1.099
        l-1.641,1.641c-0.019-0.009-0.037-0.017-0.056-0.023v-2.716H16.816z M16.217,23.831v-1.349h0.899v1.349H16.217z M16.591,27.338
        l1.641-1.641l1.931,1.93l-1.931,1.93l-1.641-1.641c0.042-0.088,0.067-0.186,0.067-0.289S16.633,27.426,16.591,27.338z
         M17.452,24.281h1.562l-0.781,0.781L17.452,24.281z M18.465,23.831h-0.899v-1.349h0.899V23.831z M17.401,22.032l0.832-0.832
        l0.832,0.832H17.401z M16.765,22.032h-0.548v-2.767c0.019-0.007,0.038-0.015,0.056-0.024l1.641,1.642L16.765,22.032z M16.217,18.004
        v-3.235c0.019-0.007,0.038-0.015,0.056-0.023l1.641,1.641l-1.641,1.642C16.255,18.019,16.236,18.011,16.217,18.004z M16.144,9.483
        c-0.018-0.018-0.039-0.03-0.061-0.041h1.066c0.046,0.353,0.1,0.759,0.163,1.209L16.144,9.483z M16.143,27.786
        c-0.041,0.043-0.099,0.067-0.16,0.067c-0.058,0-0.117-0.024-0.157-0.067c-0.042-0.041-0.067-0.1-0.067-0.157
        c0-0.061,0.025-0.117,0.067-0.16c0.083-0.083,0.234-0.083,0.317,0c0.042,0.043,0.067,0.1,0.067,0.16
        C16.21,27.686,16.186,27.745,16.143,27.786z M15.377,27.917l-1.641,1.641l-1.93-1.93l1.93-1.93l1.641,1.641
        c-0.042,0.088-0.067,0.186-0.067,0.289S15.335,27.829,15.377,27.917z M15.826,13.979c0.085-0.083,0.234-0.083,0.317,0
        c0.042,0.04,0.065,0.099,0.065,0.16c0,0.058-0.022,0.117-0.065,0.157c-0.041,0.043-0.099,0.067-0.158,0.067
        c-0.061,0-0.119-0.024-0.16-0.067c-0.042-0.043-0.065-0.099-0.065-0.157C15.76,14.079,15.783,14.022,15.826,13.979z M15.826,9.483
        l-1.169,1.169c0.062-0.451,0.117-0.856,0.163-1.209h1.066C15.864,9.453,15.843,9.465,15.826,9.483z M16.208,18.635
        c0,0.058-0.022,0.117-0.065,0.157c-0.043,0.043-0.099,0.068-0.158,0.068c-0.061,0-0.117-0.024-0.16-0.068
        c-0.042-0.04-0.067-0.099-0.067-0.157c0-0.061,0.025-0.119,0.067-0.16c0.083-0.083,0.234-0.083,0.317,0
        C16.186,18.516,16.208,18.575,16.208,18.635z M15.768,14.773v3.226c-0.025,0.009-0.049,0.018-0.072,0.029l-1.641-1.642l1.641-1.641
        C15.719,14.756,15.743,14.765,15.768,14.773z M15.768,19.27v2.763h-0.564l-1.149-1.149l1.641-1.642
        C15.719,19.253,15.743,19.262,15.768,19.27z M15.768,22.482v1.349h-0.899v-1.349H15.768z M14.568,22.032h-1.663l0.832-0.832
        L14.568,22.032z M13.519,22.482h0.899v1.349h-0.899V22.482z M14.517,24.281l-0.781,0.781l-0.781-0.781H14.517z M14.054,25.379
        l1.099-1.099h0.615v2.711c-0.025,0.009-0.049,0.018-0.072,0.029L14.054,25.379z M17.091,8.993h-2.214
        c0.051-0.407,0.087-0.715,0.109-0.899h1.996C17.003,8.278,17.04,8.585,17.091,8.993z M15.768,10.177v3.326
        c-0.025,0.009-0.049,0.018-0.072,0.029l-1.273-1.273c0.045-0.3,0.088-0.588,0.128-0.865L15.768,10.177z M15.377,13.849
        c-0.042,0.088-0.067,0.186-0.067,0.289s0.025,0.201,0.067,0.289l-1.582,1.582c0.208-1.139,0.387-2.22,0.541-3.2L15.377,13.849z
         M15.377,18.346c-0.042,0.088-0.067,0.185-0.067,0.289c0,0.104,0.025,0.201,0.067,0.289l-1.641,1.642l-0.712-0.712
        c0.229-1.038,0.438-2.068,0.626-3.063l0.086-0.085L15.377,18.346z M13.418,20.883l-0.826,0.826c0.109-0.444,0.214-0.891,0.315-1.337
        L13.418,20.883z M13.07,22.482v1.349H12.17v-1.349H13.07z M11.17,27.627l-0.593,0.594c0.113-0.278,0.222-0.565,0.33-0.857
        L11.17,27.627z M12.796,31.133l0.94-0.94l1.318,1.317C14.28,31.453,13.525,31.327,12.796,31.133z M14.054,29.875l1.641-1.641
        c0.023,0.011,0.047,0.02,0.072,0.028v3.283c-0.016,0-0.03,0-0.045-0.001L14.054,29.875z M16.217,31.545v-3.283
        c0-0.008,0.091-0.017,0.114-0.028l1.663,1.641l-1.698,1.668C16.27,31.544,16.244,31.545,16.217,31.545z M16.912,31.514l1.32-1.32
        l0.947,0.947C18.448,31.333,17.689,31.457,16.912,31.514z M20.799,27.627l0.262-0.263c0.108,0.292,0.217,0.576,0.329,0.854
        L20.799,27.627z M20.481,27.31l-1.931-1.93l1.099-1.099h0.411c0.261,0.903,0.537,1.784,0.832,2.618L20.481,27.31z M19.814,23.831
        h-0.899v-1.349h0.899V23.831z M18.55,20.883l0.51-0.51c0.101,0.445,0.207,0.891,0.315,1.335L18.55,20.883z M18.232,20.565
        l-1.641-1.642c0.042-0.087,0.067-0.185,0.067-0.289c0-0.104-0.025-0.201-0.067-0.289l1.641-1.642l0.085,0.085
        c0.188,0.995,0.397,2.025,0.626,3.063L18.232,20.565z M16.591,14.427c0.042-0.088,0.067-0.186,0.067-0.289s-0.025-0.201-0.067-0.289
        l1.041-1.041c0.153,0.98,0.333,2.061,0.541,3.2L16.591,14.427z M16.273,13.531c-0.019-0.009-0.037-0.017-0.056-0.023v-3.315
        l1.201,1.202c0.04,0.275,0.083,0.563,0.129,0.864L16.273,13.531z M13.519,4.946h0.899v1.349h-0.899V4.946z M3.806,16.187h2.511
        c0.496,0,0.899,0.403,0.899,0.899s-0.403,0.899-0.899,0.899c-0.124,0-0.225,0.1-0.225,0.225c0,0.124,0.101,0.225,0.225,0.225h3.148
        c0.496,0,0.899,0.403,0.899,0.899s-0.403,0.899-0.899,0.899H3.538C3.5,19.837,3.479,19.436,3.479,19.03
        C3.479,18.052,3.593,17.101,3.806,16.187z M3.592,20.684h5.873c0.744,0,1.349-0.605,1.349-1.349c0-0.744-0.605-1.349-1.349-1.349
        H7.322c0.214-0.239,0.344-0.554,0.344-0.899c0-0.744-0.605-1.349-1.349-1.349H3.919c1.213-4.449,4.827-7.916,9.356-8.925
        l1.273,1.146c-0.04,0.356-0.179,1.542-0.421,3.222l-0.016,0.017l0.012,0.012c-0.332,2.293-0.855,5.494-1.582,8.75l-0.023,0.022
        l0.015,0.015c-0.152,0.679-0.315,1.359-0.485,2.035h-1.452c-0.125,0-0.225,0.1-0.225,0.225v1.798c0,0.124,0.101,0.225,0.225,0.225
        h0.846c-0.584,2.009-1.255,3.882-2.015,5.4C6.306,27.748,4.095,24.482,3.592,20.684z M22.547,29.697
        c-0.762-1.522-1.436-3.4-2.022-5.417h0.863c0.124,0,0.225-0.101,0.225-0.225v-1.798c0-0.125-0.101-0.225-0.225-0.225h-1.47
        c-1.588-6.324-2.391-13.121-2.499-14.074l1.279-1.151c3.4,0.75,6.286,2.886,8.032,5.783h-6.025c-0.744,0-1.349,0.605-1.349,1.349
        c0,0.744,0.605,1.349,1.349,1.349h2.143c-0.214,0.239-0.344,0.554-0.344,0.899c0,0.744,0.605,1.349,1.349,1.349h4.576
        c0.059,0.49,0.092,0.988,0.092,1.494C28.521,23.535,26.128,27.491,22.547,29.697z M20.264,23.831v-1.349h0.899v1.349H20.264z"></path>
    </g>
</svg>
