<?xml version="1.0" encoding="UTF-8" standalone="no"?>
<!-- Created with Inkscape (http://www.inkscape.org/) -->

<svg
    xmlns:dc="http://purl.org/dc/elements/1.1/"
    xmlns:cc="http://creativecommons.org/ns#"
    xmlns:rdf="http://www.w3.org/1999/02/22-rdf-syntax-ns#"
    xmlns:svg="http://www.w3.org/2000/svg"
    xmlns="http://www.w3.org/2000/svg"
    xmlns:sodipodi="http://sodipodi.sourceforge.net/DTD/sodipodi-0.dtd"
    xmlns:inkscape="http://www.inkscape.org/namespaces/inkscape"
    width="124"
    height="4"
    id="svg2"
    viewBox="0 0 32 32"
    version="1.1"
    inkscape:version="0.48.4 r9939"
    sodipodi:docname="dashed-line.svg">
  
    <g id="e022961aa46fde19999fb4262ac04285">
    <g id="San_Francisco_1_">
        <path d="M15.993,14.582c-0.123,0-0.221,0.099-0.221,0.221v0.884c0,0.122,0.099,0.221,0.221,0.221
            c0.122,0,0.221-0.099,0.221-0.221v-0.884C16.213,14.681,16.114,14.582,15.993,14.582z"></path>
        <path d="M17.76,14.582c-0.122,0-0.221,0.099-0.221,0.221v0.884c0,0.122,0.099,0.221,0.221,0.221
            s0.221-0.099,0.221-0.221v-0.884C17.981,14.681,17.882,14.582,17.76,14.582z"></path>
        <path d="M14.225,14.582c-0.122,0-0.221,0.099-0.221,0.221v0.884c0,0.122,0.099,0.221,0.221,0.221
            c0.122,0,0.221-0.099,0.221-0.221v-0.884C14.446,14.681,14.347,14.582,14.225,14.582z"></path>
        <path d="M12.458,15.908c0.122,0,0.221-0.099,0.221-0.221v-0.884c0-0.122-0.099-0.221-0.221-0.221
            c-0.122,0-0.221,0.099-0.221,0.221v0.884C12.236,15.809,12.335,15.908,12.458,15.908z"></path>
        <path d="M15.993,7.07c0.122,0,0.221-0.099,0.221-0.221V5.965c0-0.122-0.099-0.221-0.221-0.221
            c-0.123,0-0.221,0.099-0.221,0.221v0.884C15.771,6.971,15.87,7.07,15.993,7.07z"></path>
        <path d="M17.76,7.07c0.122,0,0.221-0.099,0.221-0.221V5.965c0-0.122-0.099-0.221-0.221-0.221
            s-0.221,0.099-0.221,0.221v0.884C17.539,6.971,17.638,7.07,17.76,7.07z"></path>
        <path d="M19.527,7.07c0.122,0,0.221-0.099,0.221-0.221V5.965c0-0.122-0.1-0.221-0.221-0.221
            c-0.122,0-0.221,0.099-0.221,0.221v0.884C19.307,6.971,19.405,7.07,19.527,7.07z"></path>
        <path d="M14.225,7.07c0.122,0,0.221-0.099,0.221-0.221V5.965c0-0.122-0.099-0.221-0.221-0.221
            c-0.122,0-0.221,0.099-0.221,0.221v0.884C14.004,6.971,14.103,7.07,14.225,7.07z"></path>
        <path d="M12.458,7.07c0.122,0,0.221-0.099,0.221-0.221V5.965c0-0.122-0.099-0.221-0.221-0.221
            c-0.122,0-0.221,0.099-0.221,0.221v0.884C12.236,6.971,12.335,7.07,12.458,7.07z"></path>
        <path d="M19.527,14.582c-0.122,0-0.221,0.099-0.221,0.221v0.884c0,0.122,0.099,0.221,0.221,0.221
            c0.122,0,0.221-0.099,0.221-0.221v-0.884C19.749,14.681,19.649,14.582,19.527,14.582z"></path>
        <path d="M15.993,24.745c-0.123,0-0.221,0.099-0.221,0.221v0.884c0,0.122,0.099,0.221,0.221,0.221
            c0.122,0,0.221-0.099,0.221-0.221v-0.884C16.213,24.844,16.114,24.745,15.993,24.745z"></path>
        <path d="M17.76,24.745c-0.122,0-0.221,0.099-0.221,0.221v0.884c0,0.122,0.099,0.221,0.221,0.221
            s0.221-0.099,0.221-0.221v-0.884C17.981,24.844,17.882,24.745,17.76,24.745z"></path>
        <path d="M19.527,24.745c-0.122,0-0.221,0.099-0.221,0.221v0.884c0,0.122,0.099,0.221,0.221,0.221
            c0.122,0,0.221-0.099,0.221-0.221v-0.884C19.749,24.844,19.649,24.745,19.527,24.745z"></path>
        <path d="M14.225,24.745c-0.122,0-0.221,0.099-0.221,0.221v0.884c0,0.122,0.099,0.221,0.221,0.221
            c0.122,0,0.221-0.099,0.221-0.221v-0.884C14.446,24.844,14.347,24.745,14.225,24.745z"></path>
        <path d="M12.458,24.745c-0.122,0-0.221,0.099-0.221,0.221v0.884c0,0.122,0.099,0.221,0.221,0.221
            c0.122,0,0.221-0.099,0.221-0.221v-0.884C12.678,24.844,12.579,24.745,12.458,24.745z"></path>
        <path d="M12.458,13.698h7.07c0.122,0,0.221-0.099,0.221-0.221V9.059c0-0.123-0.1-0.221-0.221-0.221h-0.663V8.175
            c0-0.123-0.1-0.221-0.221-0.221h-5.302c-0.122,0-0.221,0.098-0.221,0.221v0.663h-0.663c-0.122,0-0.221,0.098-0.221,0.221v4.419
            C12.236,13.599,12.335,13.698,12.458,13.698z M13.562,9.059V8.396h4.861v0.663c0,0.122,0.099,0.221,0.221,0.221h0.663v3.977h-4.926
            c-0.459-1.359-0.834-2.723-1.134-3.977h0.094C13.463,9.279,13.562,9.18,13.562,9.059z M12.678,9.279h0.108
            c0.292,1.242,0.655,2.591,1.103,3.939c0.004,0.013,0.009,0.025,0.014,0.038h-1.224V9.279z"></path>
        <path d="M21.516,7.77V4.86h0.663c0.122,0,0.221-0.099,0.221-0.221S22.3,4.419,22.179,4.419h-0.663V3.535h0.221
            c0.122,0,0.221-0.099,0.221-0.221s-0.099-0.221-0.221-0.221h-0.221V1.988c0-0.122-0.1-0.221-0.221-0.221h-0.221V0.221
            c0-0.122-0.1-0.221-0.221-0.221h-1.768c-0.122,0-0.221,0.099-0.221,0.221v1.547h-0.221c-0.122,0-0.221,0.099-0.221,0.221v1.105
            h-0.221c-0.122,0-0.221,0.099-0.221,0.221s0.099,0.221,0.221,0.221h0.221v0.884h-4.861V3.535h0.221
            c0.122,0,0.221-0.099,0.221-0.221s-0.099-0.221-0.221-0.221h-0.221V1.988c0-0.122-0.099-0.221-0.221-0.221H13.12V0.221
            C13.12,0.099,13.021,0,12.899,0h-1.768c-0.122,0-0.221,0.099-0.221,0.221v1.547H10.69c-0.122,0-0.221,0.099-0.221,0.221v1.105
            h-0.221c-0.122,0-0.221,0.099-0.221,0.221s0.099,0.221,0.221,0.221h0.221v0.884H9.806c-0.122,0-0.221,0.099-0.221,0.221
            S9.684,4.86,9.806,4.86h0.663v2.917c-4.265,2.063-7.216,6.43-7.216,11.477C3.253,26.282,8.972,32,16,32s12.747-5.718,12.747-12.746
            C28.747,14.201,25.788,9.83,21.516,7.77z M28.117,21.379c-0.507-0.3-0.985-0.669-1.435-1.098c0.554-0.757,1.058-1.742,1.459-3.024
            c0.106,0.65,0.164,1.316,0.164,1.997C28.305,19.979,28.238,20.688,28.117,21.379z M21.516,11.658
            c0.411,1.296,0.853,2.481,1.325,3.552v6.985c-0.202,0.025-0.41,0.039-0.627,0.039c-0.239,0-0.47-0.023-0.698-0.057V11.658z
             M26.087,20.319c-0.303,0.372-0.647,0.712-1.036,0.999v-2.219C25.386,19.546,25.731,19.954,26.087,20.319z M24.609,21.608
            c-0.398,0.231-0.839,0.406-1.326,0.513V16.16c0.419,0.855,0.862,1.625,1.326,2.316V21.608z M21.516,22.625
            c0.23,0.03,0.462,0.052,0.698,0.052c0.193,0,0.404-0.011,0.627-0.037v6.836c-0.423,0.285-0.867,0.541-1.325,0.772V22.625z
             M23.283,22.569c0.419-0.085,0.868-0.231,1.326-0.466v5.932c-0.415,0.407-0.857,0.784-1.326,1.129V22.569z M25.051,21.848
            c0.449-0.288,0.899-0.67,1.326-1.175v5.181c-0.392,0.613-0.834,1.191-1.326,1.724V21.848z M26.818,20.998
            c0.392,0.327,0.796,0.607,1.211,0.841c-0.249,1.159-0.66,2.259-1.211,3.273V20.998z M24.743,10.605
            c0.537,0.542,1.022,1.134,1.451,1.768h-1.592c-0.487,0-0.884-0.396-0.884-0.884c0-0.487,0.396-0.884,0.884-0.884H24.743z
             M24.315,10.195c-0.594,0.131-1.04,0.661-1.04,1.293c0,0.731,0.595,1.326,1.326,1.326h1.878c0.66,1.069,1.161,2.248,1.469,3.5
            c-0.271,1.072-0.755,2.473-1.589,3.644c-2.345-2.452-3.887-6.463-4.843-9.875V8.259C22.539,8.774,23.479,9.428,24.315,10.195z
             M19.307,0.442h1.326v1.326h-1.326V0.442z M18.865,2.209h2.209v0.884h-2.209V2.209z M21.074,3.535v0.884h-2.209V3.535H21.074z
             M21.074,4.86v25.599c-0.43,0.195-0.872,0.368-1.326,0.514V28.06c0-0.123-0.1-0.221-0.221-0.221h-0.663v-0.663
            c0-0.123-0.1-0.221-0.221-0.221h-5.302c-0.122,0-0.221,0.099-0.221,0.221v0.663h-0.663c-0.122,0-0.221,0.099-0.221,0.221v2.847
            v0.061c-0.454-0.146-0.896-0.319-1.325-0.515v-7.917h1.318c0.002,0,0.005-0.001,0.007-0.001v1.105c0,0.122,0.099,0.221,0.221,0.221
            h7.07c0.122,0,0.221-0.1,0.221-0.221v-5.745c0-0.123-0.1-0.221-0.221-0.221h-0.663v-0.663c0-0.123-0.1-0.221-0.221-0.221h-5.302
            c-0.122,0-0.221,0.098-0.221,0.221v0.663h-0.663c-0.122,0-0.221,0.098-0.221,0.221v1.989c-0.002,0-0.005,0-0.007,0h-1.318V4.86
            H21.074z M14.446,27.396h1.326v4.156c-0.448-0.008-0.89-0.041-1.326-0.096V27.396z M14.004,31.394
            c-0.451-0.074-0.893-0.173-1.326-0.295V28.28h0.663c0.122,0,0.221-0.099,0.221-0.221v-0.663h0.442V31.394z M16.213,27.396h1.326
            v4.062c-0.436,0.054-0.878,0.086-1.326,0.094V27.396z M17.981,27.396h0.442v0.663c0,0.122,0.099,0.221,0.221,0.221h0.663v2.823
            c-0.434,0.121-0.875,0.22-1.326,0.293V27.396z M12.678,19.965v-1.848h0.663c0.122,0,0.221-0.1,0.221-0.221v-0.663h0.442v6.187
            h-1.326v-0.964c0.51-0.185,0.876-0.672,0.876-1.245C13.554,20.637,13.188,20.15,12.678,19.965z M18.644,18.117h0.663v3.161
            c-1.291-0.896-2.368-2.348-3.259-4.045h2.375v0.663C18.423,18.018,18.521,18.117,18.644,18.117z M17.539,20.286v3.134h-1.326
            v-4.963C16.636,19.153,17.078,19.763,17.539,20.286z M17.981,20.756c0.427,0.425,0.869,0.779,1.326,1.062v1.601h-1.326V20.756z
             M15.533,17.233c0.079,0.154,0.158,0.305,0.238,0.453v5.733h-1.326v-6.187H15.533z M11.353,0.442h1.325v1.326h-1.325V0.442z
             M10.911,2.209h2.209v0.884h-2.209V2.209z M13.12,3.535v0.884h-2.209V3.535H13.12z M10.469,8.267v11.618H8.355
            c0.21-0.235,0.339-0.544,0.339-0.884c0-0.731-0.595-1.326-1.326-1.326h-3.57C4.328,13.556,6.902,10.069,10.469,8.267z M3.75,18.117
            h3.619c0.487,0,0.884,0.396,0.884,0.884s-0.396,0.884-0.884,0.884c-0.122,0-0.221,0.098-0.221,0.221
            c0,0.122,0.099,0.221,0.221,0.221h4.861c0.487,0,0.883,0.396,0.883,0.884c0,0.487-0.396,0.884-0.883,0.884H4.03
            c-0.216-0.913-0.334-1.863-0.334-2.84C3.695,18.871,3.715,18.492,3.75,18.117z M4.144,22.536h6.326v7.704
            C7.407,28.692,5.076,25.903,4.144,22.536z"></path>
    </g>
    </g>
</svg>
