<?xml version="1.0" encoding="UTF-8" standalone="no"?>
<!-- Created with Inkscape (http://www.inkscape.org/) -->

<svg
    xmlns:dc="http://purl.org/dc/elements/1.1/"
    xmlns:cc="http://creativecommons.org/ns#"
    xmlns:rdf="http://www.w3.org/1999/02/22-rdf-syntax-ns#"
    xmlns:svg="http://www.w3.org/2000/svg"
    xmlns="http://www.w3.org/2000/svg"
    xmlns:sodipodi="http://sodipodi.sourceforge.net/DTD/sodipodi-0.dtd"
    xmlns:inkscape="http://www.inkscape.org/namespaces/inkscape"
    width="124"
    height="4"
    id="svg2"
    viewBox="0 0 32 32"
    version="1.1"
    inkscape:version="0.48.4 r9939"
    sodipodi:docname="dashed-line.svg">
  
    <g id="c783b63faa04feb87c6d1f0801bb23cd">
    <g id="Stockholm_1_">
        <path d="M17.102,6.113c0.001-0.023,0.007-0.045,0.007-0.069c0-0.54-0.383-0.992-0.892-1.099V2.248h1.652
            l-0.737,1.473c-0.034,0.07-0.031,0.152,0.011,0.219c0.04,0.066,0.113,0.107,0.19,0.107h2.248c0.085,0,0.163-0.048,0.201-0.125
            l0.899-1.798c0.035-0.07,0.031-0.152-0.01-0.219s-0.113-0.107-0.191-0.107h-1.884l0.736-1.473c0.034-0.069,0.031-0.152-0.01-0.218
            C19.282,0.041,19.21,0,19.132,0h-3.14c-0.124,0-0.225,0.101-0.225,0.225v1.799v2.919c-0.517,0.102-0.907,0.557-0.907,1.102
            c0,0.024,0.006,0.047,0.007,0.071C8.245,6.692,3.029,12.26,3.029,19.03C3.029,26.182,8.848,32,16,32
            c7.151,0,12.971-5.818,12.971-12.97C28.971,12.249,23.739,6.675,17.102,6.113z M20.117,2.248l-0.675,1.349h-1.745l0.674-1.349
            H20.117z M16.217,0.45h2.551l-0.674,1.349h-1.877V0.45z M27.008,24.73v-1.349h0.731c-0.172,0.464-0.373,0.913-0.598,1.349H27.008z
             M27.484,20.213c-0.016-0.058-0.019-0.07-0.019-0.115c0-0.379,0.303-0.688,0.674-0.688c0.118,0,0.256,0.047,0.368,0.121
            c-0.047,1.183-0.259,2.323-0.613,3.4h-0.887v-2.248h0.303c0.067,0,0.132-0.031,0.174-0.083c0.043-0.052,0.06-0.12,0.047-0.186
            C27.512,20.318,27.496,20.259,27.484,20.213z M28.582,19.04c-0.225-0.049-0.282-0.079-0.411-0.079c-0.62,0-1.14,0.51-1.14,1.137
            c0,0.057-0.011,0.099-0.004,0.136h-0.244c-0.124,0-0.225,0.1-0.225,0.225v2.473h-3.147v-2.473c0-0.125-0.101-0.225-0.225-0.225
            h-0.675V19.11c0-0.125-0.101-0.225-0.225-0.225s-0.225,0.1-0.225,0.225v1.124h-0.675c-0.124,0-0.225,0.1-0.225,0.225v0.674H20.48
            c-0.361,0-0.666-0.321-0.666-0.7v-3.572c0-0.125-0.101-0.225-0.226-0.225h-0.689c-0.035-0.5-0.187-0.958-0.427-1.349h9.474
            c0.372,1.182,0.636,2.439,0.636,3.742C28.582,19.034,28.582,19.036,28.582,19.04z M26.559,23.381v1.349h-0.899v-1.349H26.559z
             M25.21,23.381v1.349h-0.899v-1.349H25.21z M21.612,22.932v-2.248h1.349v2.248H21.612z M22.512,23.381v1.349h-0.899v-1.349H22.512z
             M22.961,23.381h0.899v1.349h-0.899V23.381z M17.565,22.932V19.56c0-0.125-0.101-0.225-0.225-0.225h-2.697
            c-0.125,0-0.226,0.1-0.226,0.225v3.372h-3.597v-1.349h0.667c0.613,0,1.132-0.527,1.132-1.15v-3.347h0.666
            c0.124,0,0.225-0.101,0.225-0.225c0-1.41,1.063-2.473,2.474-2.473s2.473,1.062,2.473,2.473c0,0.124,0.101,0.225,0.225,0.225h0.683
            v3.347c0,0.634,0.501,1.15,1.116,1.15h0.683v1.349H17.565z M21.163,23.381v1.349h-0.899v-1.349H21.163z M19.814,23.381v1.349
            h-0.899v-1.349H19.814z M18.465,23.381v1.349h-0.899v-1.349H18.465z M14.868,22.932v-3.147h2.248v3.147H14.868z M17.116,23.381
            v1.349h-0.899v-1.349H17.116z M15.768,23.381v1.349h-0.899v-1.349H15.768z M14.418,23.381v1.349H13.52v-1.349H14.418z
             M13.069,23.381v1.349H12.17v-1.349H13.069z M11.721,23.381v1.349h-0.899v-1.349H11.721z M16.892,11.241h-1.799
            c-0.124,0-0.225,0.1-0.225,0.225v2.679c-0.338,0.132-0.642,0.323-0.899,0.563v-4.366h4.047v4.381
            c-0.257-0.243-0.561-0.438-0.899-0.572v-2.686C17.116,11.341,17.016,11.241,16.892,11.241z M16.667,11.691v2.324
            c-0.218-0.048-0.445-0.076-0.683-0.076c-0.231,0-0.453,0.026-0.667,0.073v-2.321H16.667z M13.898,9.892l-0.3-0.899h4.771
            l-0.3,0.899H13.898z M18.896,8.839c0.001-0.004,0.001-0.009,0.002-0.013s0.004-0.008,0.005-0.012c0.002-0.01,0-0.02,0.001-0.03
            c0-0.005,0.002-0.011,0.002-0.016h-0.002c0-0.088-0.048-0.17-0.131-0.207c-0.018-0.008-1.217-0.547-1.969-1.753
            c0.071-0.076,0.128-0.163,0.176-0.255c5.006,0.39,9.195,3.732,10.818,8.286h-9.333v-4.721L18.896,8.839z M15.984,5.37
            c0.372,0,0.674,0.303,0.674,0.674c0,0.372-0.302,0.675-0.674,0.675S15.31,6.417,15.31,6.044C15.31,5.673,15.612,5.37,15.984,5.37z
             M15.525,7.068c0.141,0.063,0.295,0.101,0.459,0.101s0.318-0.037,0.459-0.101c0.43,0.678,0.982,1.165,1.422,1.475h-3.762
            C14.543,8.233,15.095,7.746,15.525,7.068z M13.52,10.117v4.721H4.202c1.62-4.544,5.796-7.882,10.788-8.283
            c0.05,0.094,0.107,0.183,0.18,0.259c-0.734,1.187-1.902,1.716-1.974,1.747c-0.083,0.037-0.131,0.119-0.131,0.207h-0.003
            c0,0.006,0.003,0.011,0.003,0.018c0.001,0.01-0.001,0.019,0.001,0.028c0.001,0.004,0.004,0.008,0.005,0.012s0,0.009,0.002,0.013
            L13.52,10.117z M4.054,15.288h9.442c-0.241,0.391-0.392,0.849-0.427,1.349h-0.675c-0.124,0-0.225,0.1-0.225,0.225v3.572
            c0,0.379-0.312,0.7-0.682,0.7h-0.667v-0.674c0-0.125-0.101-0.225-0.225-0.225H9.922V19.11c0-0.125-0.101-0.225-0.225-0.225
            s-0.225,0.1-0.225,0.225v1.124H8.798c-0.124,0-0.225,0.1-0.225,0.225v2.473H5.426v-2.473c0-0.125-0.101-0.225-0.225-0.225H4.973
            c0.007-0.038,0.012-0.08,0.012-0.136c0-0.624-0.505-1.13-1.125-1.13c-0.129,0-0.257,0.027-0.38,0.076c0-0.005,0-0.01,0-0.014
            C3.479,17.727,3.682,16.47,4.054,15.288z M9.022,22.932v-2.248h1.35v2.248H9.022z M10.372,23.381v1.349H9.473v-1.349H10.372z
             M9.022,23.381v1.349H8.123v-1.349H9.022z M7.674,23.381v1.349H6.774v-1.349H7.674z M6.325,23.381v1.349H5.426v-1.349H6.325z
             M4.858,24.73c-0.225-0.437-0.426-0.885-0.598-1.349h0.715v1.349H4.858z M4.976,22.932H4.104c-0.354-1.076-0.565-2.215-0.612-3.396
            c0.11-0.071,0.25-0.118,0.367-0.118c0.372,0,0.675,0.305,0.675,0.68c0,0.045-0.003,0.057-0.019,0.115
            c-0.012,0.046-0.028,0.105-0.047,0.202c-0.014,0.066,0.004,0.134,0.046,0.186c0.043,0.052,0.107,0.083,0.174,0.083h0.287V22.932z
             M9.922,29.956v0.016c-0.809-0.451-1.562-0.989-2.248-1.601v-0.004v-1.838h2.248V29.956z M13.069,31.201
            c-0.46-0.11-0.91-0.244-1.349-0.404v-0.472c0-0.372,0.303-0.674,0.674-0.674c0.372,0,0.675,0.302,0.675,0.674V31.201z
             M14.868,31.497v-4.968h2.248v4.97c-0.368,0.033-0.74,0.052-1.116,0.052C15.618,31.55,15.241,31.531,14.868,31.497z M20.264,30.802
            c-0.438,0.159-0.89,0.292-1.349,0.402v-0.879c0-0.372,0.302-0.674,0.674-0.674s0.675,0.302,0.675,0.674V30.802z M24.311,28.384
            c-0.687,0.611-1.44,1.147-2.248,1.596v-0.007v-3.444h2.248V28.384z M24.76,27.965v-1.661c0-0.125-0.101-0.225-0.225-0.225h-2.698
            c-0.124,0-0.225,0.1-0.225,0.225v3.913c-0.293,0.147-0.593,0.285-0.899,0.409v-0.301c0-0.62-0.504-1.124-1.124-1.124
            c-0.619,0-1.124,0.504-1.124,1.124v0.98c-0.296,0.06-0.596,0.106-0.899,0.144v-5.145c0-0.125-0.101-0.225-0.225-0.225h-2.697
            c-0.125,0-0.226,0.1-0.226,0.225v5.144c-0.303-0.039-0.603-0.085-0.898-0.145v-0.978c0-0.62-0.505-1.124-1.125-1.124
            c-0.619,0-1.124,0.504-1.124,1.124v0.295c-0.306-0.125-0.605-0.262-0.898-0.411v-3.905c0-0.125-0.101-0.225-0.226-0.225H7.449
            c-0.124,0-0.225,0.1-0.225,0.225v1.646c-0.831-0.817-1.547-1.75-2.124-2.77h21.799C26.318,26.207,25.597,27.144,24.76,27.965z"></path>
        <path d="M15.984,15.262c-0.868,0-1.574,0.706-1.574,1.574s0.706,1.574,1.574,1.574s1.573-0.707,1.573-1.574
            S16.853,15.262,15.984,15.262z M15.984,17.96c-0.62,0-1.124-0.504-1.124-1.124s0.504-1.124,1.124-1.124s1.124,0.504,1.124,1.124
            S16.604,17.96,15.984,17.96z"></path>
        <path d="M20.488,26.079h-1.799c-0.124,0-0.225,0.1-0.225,0.225v1.798c0,0.124,0.101,0.225,0.225,0.225h1.799
            c0.124,0,0.225-0.101,0.225-0.225v-1.798C20.713,26.179,20.612,26.079,20.488,26.079z M20.264,27.878h-1.349v-1.349h1.349V27.878z"></path>
        <path d="M13.294,26.079h-1.798c-0.125,0-0.226,0.1-0.226,0.225v1.798c0,0.124,0.101,0.225,0.226,0.225h1.798
            c0.125,0,0.226-0.101,0.226-0.225v-1.798C13.52,26.179,13.419,26.079,13.294,26.079z M13.069,27.878h-1.349v-1.349h1.349V27.878z"></path>
    </g>
    </g>
</svg>
