<?xml version="1.0" encoding="UTF-8" standalone="no"?>
<!-- Created with Inkscape (http://www.inkscape.org/) -->

<svg
    xmlns:dc="http://purl.org/dc/elements/1.1/"
    xmlns:cc="http://creativecommons.org/ns#"
    xmlns:rdf="http://www.w3.org/1999/02/22-rdf-syntax-ns#"
    xmlns:svg="http://www.w3.org/2000/svg"
    xmlns="http://www.w3.org/2000/svg"
    xmlns:sodipodi="http://sodipodi.sourceforge.net/DTD/sodipodi-0.dtd"
    xmlns:inkscape="http://www.inkscape.org/namespaces/inkscape"
    width="124"
    height="4"
    id="svg2"
    viewBox="0 0 32 32"
    version="1.1"
    inkscape:version="0.48.4 r9939"
    sodipodi:docname="dashed-line.svg">
  
    <g id="b8aede99bb38e4763f32e05cfeae3770">
    <path id="Sydney_1_" d="M21.343,6.921c-2.16-4.817-5.188-6.855-5.235-6.885c-0.075-0.048-0.172-0.048-0.248,0
        c-0.076,0.049-1.879,1.239-3.702,4.018c-0.514,0.784-1.057,1.747-1.563,2.894C6.055,9.011,2.89,13.587,2.89,18.89
        C2.89,26.119,8.771,32,16,32s13.11-5.881,13.11-13.11C29.11,13.563,25.916,8.971,21.343,6.921z M28.656,18.89
        c0,2.287-0.612,4.431-1.678,6.285h-1.214v-3.409c0-0.125-0.102-0.227-0.227-0.227H24.4v-2.443l0.863-1.294
        c0.001-0.001,0.001-0.003,0.003-0.006c0.001-0.002,0.003-0.004,0.004-0.006c0.004-0.007,0.007-0.015,0.01-0.023
        c0.004-0.009,0.008-0.017,0.011-0.026c0.003-0.011,0.004-0.021,0.006-0.031c0.001-0.01,0.003-0.019,0.003-0.027
        c0-0.012-0.001-0.021-0.002-0.032c-0.001-0.01-0.001-0.019-0.004-0.027c-0.002-0.011-0.007-0.021-0.012-0.032
        c-0.003-0.007-0.004-0.015-0.008-0.021c0-0.002-0.001-0.002-0.002-0.003c0-0.001,0-0.002-0.001-0.004
        c-0.14-0.242-0.293-0.481-0.453-0.716c-0.161-2.713-1.094-4.912-2.3-6.647c-0.264-0.956-0.571-1.835-0.903-2.644
        C25.783,9.627,28.656,13.928,28.656,18.89z M7.241,28.012c0.232-0.141,0.443-0.346,0.579-0.576c0.279,0.462,0.785,0.771,1.363,0.771
        s1.084-0.31,1.363-0.772c0.279,0.462,0.786,0.772,1.363,0.772c0.578,0,1.085-0.31,1.364-0.772c0.279,0.462,0.786,0.772,1.363,0.772
        c0.578,0,1.085-0.31,1.363-0.771c0.278,0.462,0.785,0.772,1.363,0.772c0.578,0,1.084-0.309,1.363-0.771
        c0.279,0.463,0.786,0.773,1.364,0.773c0.576,0,1.083-0.307,1.361-0.766c0.278,0.466,0.786,0.778,1.365,0.778
        c0.575,0,1.081-0.304,1.36-0.758c0.132,0.225,0.336,0.427,0.56,0.568c-2.273,2.174-5.351,3.513-8.737,3.513
        C12.603,31.545,9.517,30.198,7.241,28.012z M25.073,27.7c-0.397-0.19-0.666-0.603-0.666-1.051c0-0.126-0.102-0.228-0.227-0.228
        s-0.227,0.102-0.227,0.228c0,0.627-0.499,1.119-1.136,1.119c-0.626,0-1.136-0.513-1.136-1.144c0-0.125-0.102-0.227-0.227-0.227
        s-0.227,0.102-0.227,0.227c0,0.624-0.51,1.132-1.136,1.132s-1.136-0.51-1.136-1.138c0-0.125-0.102-0.227-0.228-0.227
        S18.5,26.493,18.5,26.618c0,0.626-0.51,1.135-1.137,1.135s-1.136-0.51-1.136-1.137c0-0.125-0.102-0.228-0.228-0.228
        s-0.227,0.102-0.227,0.228c0,0.626-0.51,1.136-1.136,1.136s-1.136-0.51-1.136-1.136c0-0.126-0.102-0.228-0.227-0.228
        c-0.126,0-0.228,0.101-0.228,0.228c0,0.626-0.51,1.136-1.136,1.136s-1.136-0.51-1.136-1.136c0-0.126-0.102-0.228-0.227-0.228
        c-0.125,0-0.227,0.101-0.227,0.228c0,0.626-0.51,1.136-1.136,1.136c-0.627,0-1.136-0.51-1.136-1.136
        c0-0.126-0.102-0.228-0.228-0.228s-0.227,0.101-0.227,0.228c0,0.458-0.279,0.874-0.69,1.058C6.3,27.05,5.761,26.366,5.296,25.629
        h21.408C26.232,26.375,25.686,27.07,25.073,27.7z M6.675,25.174v-3.181h0.909v3.181H6.675z M15.984,5.317
        c0.836,0.374,7.463,3.567,8.312,10.812c-0.277-0.356-0.571-0.7-0.878-1.034c-0.435-1.677-1.146-3.18-2.133-4.504l0.003-0.005
        l-0.013-0.007C20,8.876,18.273,7.467,16.091,6.371c-0.065-0.033-0.141-0.033-0.206,0c-3.876,1.979-6.328,4.906-7.327,8.717
        c-0.312,0.337-0.61,0.687-0.891,1.047C8.512,8.885,15.147,5.691,15.984,5.317z M12.762,6.763c0.752-1.563,1.731-3.035,3.003-4.272
        v2.427C15.375,5.095,14.162,5.688,12.762,6.763z M16.219,4.925V2.489c0.91,0.885,2.021,2.256,3.001,4.284
        C17.832,5.703,16.626,5.11,16.219,4.925z M19.291,9.079c0.533,0.483,1.017,1,1.448,1.549l-0.813,1.408
        c-0.597-0.436-1.168-0.82-1.68-1.148L19.291,9.079z M17.861,10.646c-0.785-0.487-1.383-0.812-1.642-0.949V6.952
        c1.012,0.536,1.922,1.142,2.724,1.819L17.861,10.646z M21.035,11.023c0.738,1.023,1.312,2.151,1.716,3.386
        c-0.796-0.78-1.643-1.485-2.458-2.099L21.035,11.023z M11.242,10.649c0.432-0.549,0.915-1.066,1.447-1.551l1.034,1.79
        c-0.512,0.328-1.083,0.712-1.68,1.148L11.242,10.649z M11.675,12.31c-0.808,0.609-1.647,1.307-2.437,2.078
        c0.405-1.215,0.974-2.331,1.706-3.344L11.675,12.31z M13.036,8.791c0.804-0.683,1.714-1.295,2.729-1.839v2.737
        c-0.25,0.132-0.857,0.461-1.657,0.958L13.036,8.791z M15.984,10.087c0.814,0.433,6.2,3.407,8.687,7.361h-1.309
        c-1.896-3.329-4.974-4.998-6.638-5.898c-0.247-0.133-0.458-0.248-0.626-0.347c-0.071-0.042-0.159-0.042-0.23,0
        c-0.166,0.099-0.376,0.212-0.621,0.344c-1.664,0.9-4.743,2.569-6.642,5.901H7.296C9.783,13.495,15.171,10.521,15.984,10.087z
         M24.043,18.812h-0.585l-1.299-0.909h2.49L24.043,18.812z M24.4,21.993h0.909v3.181H24.4V21.993z M23.037,21.539v-1.136
        c0-0.125-0.102-0.228-0.227-0.228H9.175c-0.125,0-0.227,0.103-0.227,0.228v1.136H8.039v-2.272h15.907v2.272H23.037z M23.946,21.993
        v3.181h-0.909v-3.181H23.946z M9.402,21.539v-0.909h13.18v0.909H9.402z M22.583,21.993v3.181h-0.909v-3.181H22.583z M21.219,21.993
        v3.181H20.31v-3.181H21.219z M19.855,21.993v3.181h-0.909v-3.181H19.855z M18.492,21.993v3.181h-0.909v-3.181H18.492z
         M17.128,21.993v3.181h-0.909v-3.181H17.128z M15.765,21.993v3.181h-0.909v-3.181H15.765z M14.401,21.993v3.181h-0.909v-3.181
        H14.401z M13.038,21.993v3.181h-0.909v-3.181H13.038z M11.675,21.993v3.181h-0.909v-3.181H11.675z M10.311,21.993v3.181H9.402
        v-3.181H10.311z M8.948,21.993v3.181H8.039v-3.181H8.948z M10.61,17.903h1.302l-0.656,0.909H9.31L10.61,17.903z M10.311,17.448
        H9.128c0.359-0.599,0.76-1.139,1.183-1.63V17.448z M13.849,17.903l-0.335,0.909h-1.698l0.657-0.909H13.849z M12.583,17.448v-3.722
        c0.47-0.349,0.93-0.652,1.364-0.918v4.64H12.583z M12.129,17.448h-1.363v-2.129c0.444-0.463,0.904-0.875,1.363-1.243V17.448z
         M15.765,17.903v0.909h-1.767l0.334-0.909H15.765z M14.401,17.448v-4.911c0.393-0.228,0.753-0.423,1.062-0.59
        c0.107-0.059,0.207-0.113,0.301-0.164v5.665H14.401z M17.648,17.903l0.316,0.909h-1.745v-0.909H17.648z M16.219,17.448v-5.655
        c0.09,0.049,0.187,0.102,0.289,0.156c0.313,0.17,0.678,0.368,1.075,0.599v4.9H16.219z M21.219,17.448h-1.363v-3.357
        c0.46,0.369,0.919,0.781,1.363,1.247V17.448z M21.366,17.903l1.299,0.909h-1.955l-0.644-0.909H21.366z M20.155,18.812h-1.709
        l-0.315-0.909h1.381L20.155,18.812z M19.401,17.448h-1.363V12.82c0.433,0.265,0.894,0.571,1.363,0.919V17.448z M21.673,17.448v-1.61
        c0.417,0.485,0.811,1.02,1.165,1.61H21.673z M9.817,17.903l-1.3,0.909H7.925l-0.606-0.909H9.817z M15.985,0.505
        c0.437,0.319,1.957,1.522,3.459,3.821c0.776,1.187,1.619,2.798,2.294,4.85c-0.555-0.663-1.14-1.243-1.715-1.745
        c-0.882-2.094-2.126-4.081-3.884-5.637c-0.086-0.076-0.216-0.076-0.302,0.001c-1.746,1.562-2.986,3.538-3.867,5.615
        c-0.583,0.506-1.174,1.091-1.737,1.762C12.076,3.615,15.313,0.999,15.985,0.505z M10.327,7.583
        c-0.322,0.795-0.623,1.669-0.885,2.627c-1.201,1.733-2.131,3.928-2.292,6.635c-0.16,0.235-0.312,0.474-0.453,0.716
        c0,0.002-0.001,0.003-0.001,0.004c0,0.001-0.001,0.001-0.002,0.003c-0.003,0.006-0.005,0.014-0.008,0.021
        c-0.004,0.01-0.009,0.021-0.012,0.032c-0.002,0.009-0.002,0.018-0.003,0.027c-0.001,0.011-0.003,0.021-0.003,0.032
        c0,0.009,0.002,0.018,0.004,0.027c0.001,0.011,0.002,0.021,0.005,0.031c0.003,0.009,0.007,0.017,0.011,0.026
        c0.004,0.008,0.005,0.016,0.01,0.023c0.001,0.002,0.004,0.004,0.005,0.006c0.001,0.002,0.002,0.004,0.003,0.006l0.878,1.318v2.419
        H6.448c-0.125,0-0.227,0.102-0.227,0.227v3.409H5.022c-1.066-1.854-1.678-3.998-1.678-6.285C3.344,13.95,6.19,9.666,10.327,7.583z"></path>
    </g>
</svg>
