<?xml version="1.0" encoding="UTF-8" standalone="no"?>
<!-- Created with Inkscape (http://www.inkscape.org/) -->

<svg
    xmlns:dc="http://purl.org/dc/elements/1.1/"
    xmlns:cc="http://creativecommons.org/ns#"
    xmlns:rdf="http://www.w3.org/1999/02/22-rdf-syntax-ns#"
    xmlns:svg="http://www.w3.org/2000/svg"
    xmlns="http://www.w3.org/2000/svg"
    xmlns:sodipodi="http://sodipodi.sourceforge.net/DTD/sodipodi-0.dtd"
    xmlns:inkscape="http://www.inkscape.org/namespaces/inkscape"
    width="124"
    height="4"
    id="svg2"
    viewBox="0 0 32 32"
    version="1.1"
    inkscape:version="0.48.4 r9939"
    sodipodi:docname="dashed-line.svg">
  
    <g id="b8a56a8995b842c91133be91eb26cc54">
    <path id="Wellington_1_" d="M19.644,6.586l-0.292-1.459c-0.021-0.105-0.113-0.181-0.22-0.181h-2.915V2.248h1.651
        l-0.736,1.473c-0.035,0.07-0.031,0.152,0.01,0.218c0.041,0.067,0.113,0.107,0.191,0.107h2.248c0.085,0,0.163-0.048,0.201-0.125
        l0.899-1.798c0.034-0.069,0.03-0.152-0.011-0.219c-0.04-0.066-0.113-0.106-0.19-0.106h-1.885l0.736-1.474
        c0.035-0.069,0.031-0.152-0.01-0.218C19.281,0.041,19.209,0,19.132,0h-3.14c-0.125,0-0.226,0.1-0.226,0.225v1.799v2.923h-2.93
        c-0.107,0-0.2,0.075-0.221,0.181l-0.294,1.47C6.956,8.187,3.029,13.155,3.029,19.03c0,7.152,5.818,12.97,12.97,12.97
        c7.152,0,12.971-5.818,12.971-12.97C28.97,13.143,25.026,8.166,19.644,6.586z M20.116,2.248l-0.675,1.349h-1.745l0.675-1.349H20.116
        z M16.217,0.45h2.551l-0.675,1.349h-1.876V0.45z M28.521,19.03c0,1.035-0.129,2.04-0.366,3.002h-1.146V19.11
        c0-0.125-0.101-0.225-0.225-0.225h-1.124v-2.922c0-0.125-0.101-0.225-0.225-0.225h-1.124v-2.922c0-0.125-0.102-0.225-0.226-0.225
        h-0.674v-2.023c0-0.066-0.024-0.109-0.074-0.164l-1.883-2.636C25.632,9.796,28.521,14.081,28.521,19.03z M23.86,28.766
        c-1.069,0.865-2.281,1.559-3.597,2.037v-8.32h0.899v1.574c0,0.124,0.101,0.225,0.225,0.225s0.225-0.101,0.225-0.225v-1.574h0.899
        v1.574c0,0.124,0.101,0.225,0.225,0.225s0.225-0.101,0.225-0.225v-1.574h0.899V28.766z M9.247,24.281
        c0.124,0,0.225-0.101,0.225-0.225v-1.574h0.899v1.574c0,0.124,0.101,0.225,0.225,0.225s0.226-0.101,0.226-0.225v-1.574h0.899v8.315
        c-1.316-0.48-2.529-1.176-3.598-2.043v-6.271h0.899v1.574C9.022,24.18,9.123,24.281,9.247,24.281z M13.294,24.281
        c0.124,0,0.225-0.101,0.225-0.225v-1.574h0.899v1.574c0,0.124,0.101,0.225,0.225,0.225s0.226-0.101,0.226-0.225v-1.574h0.898v9.063
        c-1.252-0.023-2.459-0.229-3.597-0.595v-8.468h0.899v1.574C13.069,24.18,13.17,24.281,13.294,24.281z M17.341,24.281
        c0.124,0,0.225-0.101,0.225-0.225v-1.574h0.899v1.574c0,0.124,0.101,0.225,0.225,0.225s0.225-0.101,0.225-0.225v-1.574h0.899v8.473
        c-1.138,0.364-2.345,0.569-3.597,0.59v-9.063h0.899v1.574C17.116,24.18,17.217,24.281,17.341,24.281z M5.425,22.032v-2.698h0.899
        v1.574c0,0.124,0.101,0.225,0.226,0.225c0.123,0,0.225-0.101,0.225-0.225v-1.574h0.899v1.574c0,0.124,0.101,0.225,0.225,0.225
        s0.225-0.101,0.225-0.225v-1.574h0.899v1.574c0,0.124,0.101,0.225,0.225,0.225s0.225-0.101,0.225-0.225v-1.574h0.899v1.574
        c0,0.124,0.101,0.225,0.225,0.225s0.226-0.101,0.226-0.225v-1.574h0.899v1.574c0,0.124,0.1,0.225,0.225,0.225
        c0.124,0,0.225-0.101,0.225-0.225v-1.574h0.899v1.574c0,0.124,0.101,0.225,0.225,0.225s0.225-0.101,0.225-0.225v-1.574h0.899v1.574
        c0,0.124,0.101,0.225,0.225,0.225s0.226-0.101,0.226-0.225v-1.574h0.898v1.574c0,0.124,0.101,0.225,0.226,0.225
        c0.123,0,0.225-0.101,0.225-0.225v-1.574h0.899v1.574c0,0.124,0.101,0.225,0.225,0.225s0.225-0.101,0.225-0.225v-1.574h0.899v1.574
        c0,0.124,0.101,0.225,0.225,0.225s0.225-0.101,0.225-0.225v-1.574h0.899v1.574c0,0.124,0.101,0.225,0.226,0.225
        c0.123,0,0.225-0.101,0.225-0.225v-1.574h0.899v1.574c0,0.124,0.101,0.225,0.225,0.225s0.225-0.101,0.225-0.225v-1.574h0.899v1.574
        c0,0.124,0.101,0.225,0.225,0.225s0.225-0.101,0.225-0.225v-1.574h0.899v1.574c0,0.124,0.101,0.225,0.225,0.225
        s0.226-0.101,0.226-0.225v-1.574h0.898v1.574c0,0.124,0.101,0.225,0.226,0.225c0.124,0,0.225-0.101,0.225-0.225v-1.574h0.899v2.698
        H5.425z M7.898,17.986c0.124,0,0.225-0.101,0.225-0.225v-1.574h0.899v1.574c0,0.124,0.101,0.225,0.225,0.225
        s0.225-0.101,0.225-0.225v-1.574h0.899v1.574c0,0.124,0.101,0.225,0.225,0.225s0.226-0.101,0.226-0.225v-1.574h0.899v1.574
        c0,0.124,0.1,0.225,0.225,0.225c0.124,0,0.225-0.101,0.225-0.225v-1.574h0.899v1.574c0,0.124,0.101,0.225,0.225,0.225
        s0.225-0.101,0.225-0.225v-1.574h0.899v1.574c0,0.124,0.101,0.225,0.225,0.225s0.226-0.101,0.226-0.225v-1.574h0.898v1.574
        c0,0.124,0.101,0.225,0.226,0.225c0.123,0,0.225-0.101,0.225-0.225v-1.574h0.899v1.574c0,0.124,0.101,0.225,0.225,0.225
        s0.225-0.101,0.225-0.225v-1.574h0.899v1.574c0,0.124,0.101,0.225,0.225,0.225s0.225-0.101,0.225-0.225v-1.574h0.899v1.574
        c0,0.124,0.101,0.225,0.226,0.225c0.123,0,0.225-0.101,0.225-0.225v-1.574h0.899v1.574c0,0.124,0.101,0.225,0.225,0.225
        s0.225-0.101,0.225-0.225v-1.574h0.899v1.574c0,0.124,0.101,0.225,0.225,0.225s0.225-0.101,0.225-0.225v-1.574h0.899v1.574
        c0,0.124,0.101,0.225,0.225,0.225s0.226-0.101,0.226-0.225v-1.574h0.898v2.698H6.774v-2.698h0.899v1.574
        C7.674,17.885,7.774,17.986,7.898,17.986z M9.247,14.838c0.124,0,0.225-0.101,0.225-0.225V13.04h0.899v1.574
        c0,0.124,0.101,0.225,0.225,0.225s0.226-0.101,0.226-0.225V13.04h0.899v1.574c0,0.124,0.1,0.225,0.225,0.225
        c0.124,0,0.225-0.101,0.225-0.225V13.04h0.899v1.574c0,0.124,0.101,0.225,0.225,0.225s0.225-0.101,0.225-0.225V13.04h0.899v1.574
        c0,0.124,0.101,0.225,0.225,0.225s0.226-0.101,0.226-0.225V13.04h0.898v1.574c0,0.124,0.101,0.225,0.226,0.225
        c0.123,0,0.225-0.101,0.225-0.225V13.04h0.899v1.574c0,0.124,0.101,0.225,0.225,0.225s0.225-0.101,0.225-0.225V13.04h0.899v1.574
        c0,0.124,0.101,0.225,0.225,0.225s0.225-0.101,0.225-0.225V13.04h0.899v1.574c0,0.124,0.101,0.225,0.226,0.225
        c0.123,0,0.225-0.101,0.225-0.225V13.04h0.899v1.574c0,0.124,0.101,0.225,0.225,0.225s0.225-0.101,0.225-0.225V13.04h0.899v1.574
        c0,0.124,0.101,0.225,0.225,0.225s0.225-0.101,0.225-0.225V13.04h0.226h0.674v2.698H8.123V13.04h0.675h0.225v1.574
        C9.022,14.737,9.123,14.838,9.247,14.838z M9.022,12.59v-1.798h1.349v1.798H9.022z M10.821,12.59v-1.798h3.147v1.798H10.821z
         M17.565,10.792v1.798h-3.147v-1.798H17.565z M14.868,10.342V7.644h0.898v2.698H14.868z M16.217,10.342V7.644h0.899v2.698H16.217z
         M18.016,12.59v-1.798h3.147v1.798H18.016z M21.612,12.59v-1.798h1.349v1.798H21.612z M20.071,7.194h-0.306l-0.021-0.107
        C19.854,7.122,19.963,7.156,20.071,7.194z M20.814,7.644l1.927,2.698h-5.176V7.644H20.814z M13.021,5.396h5.927l0.359,1.799h-1.741
        V6.52c0-0.125-0.101-0.225-0.225-0.225s-0.225,0.1-0.225,0.225v0.674h-0.899V6.52c0-0.125-0.102-0.225-0.225-0.225
        c-0.125,0-0.226,0.1-0.226,0.225v0.674h-0.898V6.52c0-0.125-0.102-0.225-0.226-0.225s-0.225,0.1-0.225,0.225v0.674h-1.757
        L13.021,5.396z M14.418,7.644v2.698H9.227l1.927-2.698H14.418z M12.202,7.194h-0.276c0.098-0.034,0.196-0.065,0.296-0.097
        L12.202,7.194z M10.496,7.79l-1.89,2.646c-0.038,0.055-0.034,0.092-0.034,0.186v1.969H7.898c-0.124,0-0.225,0.1-0.225,0.225v2.922
        H6.55c-0.125,0-0.226,0.1-0.226,0.225v2.922H5.2c-0.124,0-0.225,0.1-0.225,0.225v2.922H3.845c-0.237-0.962-0.366-1.968-0.366-3.002
        C3.479,14.1,6.345,9.83,10.496,7.79z M3.967,22.482h1.009v1.574c0,0.124,0.101,0.225,0.225,0.225s0.225-0.101,0.225-0.225v-1.574
        h0.899v1.574c0,0.124,0.101,0.225,0.226,0.225c0.123,0,0.225-0.101,0.225-0.225v-1.574h0.899v5.889
        C5.932,26.817,4.628,24.784,3.967,22.482z M24.311,28.384v-5.902h0.898v1.574c0,0.124,0.101,0.225,0.226,0.225
        c0.124,0,0.225-0.101,0.225-0.225v-1.574h0.899v1.574c0,0.124,0.101,0.225,0.225,0.225s0.225-0.101,0.225-0.225v-1.574h1.024
        C27.369,24.791,26.06,26.828,24.311,28.384z"></path>
    </g>
</svg>
